<svg fill="#000000" xmlns="http://www.w3.org/2000/svg"  viewBox="0 0 48 48" width="24px" height="24px"><path d="M 10.5 7 C 6.9280619 7 4 9.9280619 4 13.5 L 4 30.5 C 4 34.071938 6.9280619 37 10.5 37 L 12 37 L 12 42.5 C 12 44.46599 14.427297 45.67893 16 44.5 L 26 37 L 37.5 37 C 41.071938 37 44 34.071938 44 30.5 L 44 13.5 C 44 9.9280619 41.071938 7 37.5 7 L 10.5 7 z M 15.5 17 L 32.5 17 C 33.33 17 34 17.67 34 18.5 C 34 19.33 33.33 20 32.5 20 L 15.5 20 C 14.67 20 14 19.33 14 18.5 C 14 17.67 14.67 17 15.5 17 z M 15.5 24 L 28.5 24 C 29.33 24 30 24.67 30 25.5 C 30 26.33 29.33 27 28.5 27 L 15.5 27 C 14.67 27 14 26.33 14 25.5 C 14 24.67 14.67 24 15.5 24 z"/></svg>