<svg fill="#000000" xmlns="http://www.w3.org/2000/svg"  viewBox="0 0 48 48" width="24px" height="24px"><path d="M 15.5 5 C 13.032499 5 11 7.0324991 11 9.5 L 11 20.050781 C 8.7666235 20.305701 7 22.203405 7 24.5 L 7 25 L 5.5 25 A 1.50015 1.50015 0 1 0 5.5 28 L 7 28 L 7 38.5 C 7 40.967501 9.0324991 43 11.5 43 L 36.5 43 C 38.967501 43 41 40.967501 41 38.5 L 41 28 L 42.5 28 A 1.50015 1.50015 0 1 0 42.5 25 L 41 25 L 41 24.5 C 41 22.203405 39.233377 20.305701 37 20.050781 L 37 9.5 C 37 7.0324991 34.967501 5 32.5 5 L 15.5 5 z M 15.5 8 L 32.5 8 C 33.346499 8 34 8.6535009 34 9.5 L 34 20 L 27.5 20 A 1.50015 1.50015 0 0 0 27.394531 22.998047 A 1.50015 1.50015 0 0 0 27.5 23 C 28.346499 23 29 23.653501 29 24.5 C 29 25.346499 28.346499 26 27.5 26 L 20.5 26 C 19.653501 26 19 25.346499 19 24.5 C 19 23.653501 19.653501 23 20.5 23 A 1.50015 1.50015 0 0 0 20.650391 22.994141 A 1.50015 1.50015 0 0 0 20.5 20 L 14 20 L 14 9.5 C 14 8.6535009 14.653501 8 15.5 8 z M 11.5 23 L 16.279297 23 C 16.109157 23.472096 16 23.972548 16 24.5 C 16 26.967501 18.032499 29 20.5 29 L 27.5 29 C 29.967501 29 32 26.967501 32 24.5 C 32 23.972548 31.890843 23.472096 31.720703 23 L 36.5 23 C 37.346499 23 38 23.653501 38 24.5 L 38 26.253906 A 1.50015 1.50015 0 0 0 38 26.740234 L 38 38.5 C 38 39.346499 37.346499 40 36.5 40 L 11.5 40 C 10.653501 40 10 39.346499 10 38.5 L 10 26.746094 A 1.50015 1.50015 0 0 0 10 26.259766 L 10 24.5 C 10 23.653501 10.653501 23 11.5 23 z M 15 31 A 1.5 1.5 0 0 0 15 34 A 1.5 1.5 0 0 0 15 31 z M 21 31 A 1.5 1.5 0 0 0 21 34 A 1.5 1.5 0 0 0 21 31 z M 27 31 A 1.5 1.5 0 0 0 27 34 A 1.5 1.5 0 0 0 27 31 z M 33 31 A 1.5 1.5 0 0 0 33 34 A 1.5 1.5 0 0 0 33 31 z M 18 35 A 1.5 1.5 0 0 0 18 38 A 1.5 1.5 0 0 0 18 35 z M 24 35 A 1.5 1.5 0 0 0 24 38 A 1.5 1.5 0 0 0 24 35 z M 30 35 A 1.5 1.5 0 0 0 30 38 A 1.5 1.5 0 0 0 30 35 z"/></svg>