<svg fill="#000000" xmlns="http://www.w3.org/2000/svg"  viewBox="0 0 48 48" width="24px" height="24px"><path d="M 10.5 8 C 6.9280619 8 4 10.928062 4 14.5 L 4 20.5 A 1.50015 1.50015 0 1 0 7 20.5 L 7 19.015625 L 23.287109 27.820312 A 1.50015 1.50015 0 0 0 24.712891 27.820312 L 41 19.015625 L 41 33.5 C 41 35.450062 39.450062 37 37.5 37 L 26.5 37 A 1.50015 1.50015 0 1 0 26.5 40 L 37.5 40 C 41.071938 40 44 37.071938 44 33.5 L 44 14.5 C 44 10.928062 41.071938 8 37.5 8 L 10.5 8 z M 10.5 11 L 37.5 11 C 39.450062 11 41 12.549938 41 14.5 L 41 15.605469 L 24 24.794922 L 7 15.605469 L 7 14.5 C 7 12.549938 8.5499381 11 10.5 11 z M 3.5 25 A 1.50015 1.50015 0 1 0 3.5 28 L 10.5 28 A 1.50015 1.50015 0 1 0 10.5 25 L 3.5 25 z M 3.5 31 A 1.50015 1.50015 0 1 0 3.5 34 L 15.5 34 A 1.50015 1.50015 0 1 0 15.5 31 L 3.5 31 z M 3.5 37 A 1.50015 1.50015 0 1 0 3.5 40 L 20.5 40 A 1.50015 1.50015 0 1 0 20.5 37 L 3.5 37 z"/></svg>