<?xml version="1.0" encoding="UTF-8"?>
<svg fill="none" viewBox="0 0 1000 589" xmlns="http://www.w3.org/2000/svg">
<path d="m956.31 153.05-0.291-0.194v0.291l0.291-0.097zm-2.912-2.621 0.679-0.291v-0.388l-0.679 0.679zm12.036-7.571-0.097-1.359-0.195-0.776 0.292 2.135zm-42.417-9.997-0.679 0.291-5.533 1.65-1.941 0.679-2.233 0.68-0.776 0.291v0.291l0.291 5.048 0.291 4.659 0.291 4.27 0.486 0.292 1.747-0.486 7.862-2.329 0.194 0.485 13.977-5.338 0.097 0.194 1.262-0.486 4.465-1.747 4.271 5.145 0.582-0.486 0.291-1.456-0.097 2.33h0.971l0.291 1.165 0.874 1.65 4.562-5.533 3.785 1.262 0.874-1.941 6.212-3.301-2.621-5.144 0.679 3.3-3.203 2.427-3.591 0.291-7.183-7.668-3.203-4.853 3.203-3.397-3.3-0.194-1.359-3.204-0.097-0.194-5.532 6.018-12.23 4.077-3.98 1.262z" fill="#15803D" stroke="#052E16" stroke-linejoin="round" stroke-width=".97063"/>
<path d="m558.55 73.847 1.941 6.8914 4.077 24.848 1.941 9.9 0.583 8.736 2.232 5.242 0.485 4.464 0.389 1.456-0.097 0.292-3.883 6.406 2.524 4.271 4.853 34.166 0.194 4.465 4.853-0.292 19.122-1.067 47.755-3.98 4.756-0.485v-0.485l-1.359-7.474-5.921-3.009-4.659-4.853-7.377-4.465-2.329-0.194-3.592-2.718 0.971-13.395-3.397-3.106 1.164-5.436 6.213-5.629-1.068-11.648 2.232-2.523 7.571-7.96 8.639-11.065 3.3-2.3295 5.824-2.8148 6.115-4.562-4.077 0.7765-2.426-1.8442-9.319 1.2619-1.455-1.7472-8.348 3.3972-6.697-2.8148-1.844-2.2324-5.339 0.3882-3.591-1.8442 1.164-1.3589-4.561-1.4559h-4.077l-6.503 2.8148-1.262-1.9413-10.289-1.4559-3.494-8.7357-0.388-2.6207-4.465-1.2618 0.388 7.4739-11.842 0.8735-14.656 0.5824-0.971 0.0971z" fill="#15803D" stroke="#052E16" stroke-linejoin="round" stroke-width=".97063"/>
<path d="m465.66 72.974-32.128-2.1354-23.392-2.2325-23.296-2.7177-14.462-1.9413-23.101-3.5913-11.55-1.9413-25.819-4.9502-2.718-0.5824-4.174 19.801 1.844 3.5913 1.456 5.5326-0.873 0.7765 1.844 5.0473 2.524 2.1354 7.182 12.036 0.68 2.038 2.912-0.194-3.398 15.918-1.358 0.388-1.845 5.339 9.61 0.679 0.776 4.465 5.436 13.298 0.97 0.776 3.786 7.765 0.97-0.776 8.057-0.097 10.191 1.067 2.524-3.3 3.009 5.436 0.582 0.291 0.097-0.582 1.359-9.513 33.196 4.077 26.498 2.524 13.977 1.165 24.945 1.455 1.262 0.098h0.291l0.097-1.359 0.292-6.698 0.388-8.832 0.097-2.233 0.194-3.882 1.553-30.478 1.262-23.684 0.097-3.8825-1.844-0.0971z" fill="#15803D" stroke="#052E16" stroke-linejoin="round" stroke-width=".97063"/>
<path d="m556.51 73.847-29.313 0.5823-20.481-0.097-17.568-0.3883-20.577-0.7765-1.068-0.097-0.097 3.8825-1.262 23.684-1.553 30.478-0.194 3.882 3.785 0.194 42.805 1.165 39.505-0.291 16.404-0.485 3.3-0.195-0.389-1.456-0.485-4.464-2.232-5.242-0.583-8.736-1.941-9.9-4.077-24.848-1.941-6.8915h-2.038z" fill="#15803D" stroke="#052E16" stroke-linejoin="round" stroke-width=".97063"/>
<path d="m309.1 52.882-8.639-1.7471-2.815-0.6795-1.261-0.2912-11.26 50.667 0.486 4.174-0.389 4.367 0.194 0.971v0.097l0.098 1.844 3.3 3.592-4.756 11.938-10.095 13.201-0.291 2.427 2.621 6.212-9.221 38.243-0.389 2.038 2.718 0.582 27.469 5.436 10.968 2.038 2.815 0.485 2.718 0.486 13.977 2.232 25.042 3.786 2.815 0.388 0.388-3.203 0.874-6.309 3.3-25.237 1.747-12.521 0.388-3.203-0.582-0.291-3.009-5.436-2.524 3.3-10.191-1.067-8.057 0.097-0.97 0.776-3.786-7.765-0.97-0.776-5.436-13.298-0.776-4.465-9.61-0.679 1.845-5.339 1.359-0.388 3.397-15.918-2.912 0.194-0.68-2.038-7.182-12.036-2.524-2.1354-1.844-5.0473 0.873-0.7765-1.456-5.5326-1.844-3.5914 4.174-19.801-0.097-1e-4z" fill="#15803D" stroke="#052E16" stroke-linejoin="round" stroke-width=".97063"/>
<path d="m192.13 77.05 0.097-1.65-0.194 0.097 0.097 1.553zm20.674-8.8327 0.583-0.9706-0.68-0.0971 0.097 1.0677zm-1.844-1.7471 0.582-1.9413-0.582-0.1941v2.1354zm7.086-2.8149-0.097-1.9412-1.65 2.5236 1.747-0.5824zm0.194-4.0766 0.291-1.9413-0.194-0.4853-0.097 2.4266zm0.291-9.5122-0.097-1.0677-0.388-0.0971 0.485 1.1648zm3.106-6.4062-0.874-0.097-1.747 2.7177 2.621-2.6207zm-2.427-2.6207 0.486-0.3882 0.097-0.2912-0.583 0.6794zm-0.485 0.2912-0.291-1.9413-0.874 1.6501 1.165 0.2912zm-0.485-2.7178-0.874-0.3882 0.68 0.9706 0.194-0.5824zm2.912 1.6501v-1.2618l-0.291 0.4853 0.291 0.7765zm0.873-1.2618-0.388-0.2912h-0.097l0.485 0.2912zm-5.532-2.1354-0.486-0.3882-0.194-0.0971 0.68 0.4853zm3.591-0.3882-2.621 0.6794 0.68 0.1941 1.941-0.8735zm-2.135-0.1942-0.486-0.5824-0.097 0.0971 0.583 0.4853zm2.038-1.1647h-0.388l0.485 0.1941-0.097-0.1941zm-19.024 49.793 3.494 3.7854-0.583 7.2797 0.68 1.8442 5.241 2.8151 14.754 1.359 0.582 1.747 6.989 0.097 6.6 0.873 10.774-1.164 5.339 0.873 1.456-0.679 27.274 6.212 1.844 0.388-0.194-0.971 0.389-4.367-0.486-4.174 11.26-50.667-1.553-0.2912-22.713-5.3385-19.801-5.0472-22.422-6.2121-6.697-1.6501 1.553 8.4445-1.456 2.7178-2.621-1.3589 2.524 11.745-2.718 3.8825-1.262 3.5913v3.6884l-5.726 3.9796-2.427-1.553-2.329 1.1647 4.27-5.5326-1.067 3.7855 2.426-2.6207 1.942 0.3883-0.583-4.8532 1.262 0.1941 2.621-5.8238-0.874-0.8735-3.397 4.3678-2.233 0.0971 2.427-2.7178 2.718-0.6794-0.971-4.9503-2.718-0.6794-1.358-2.3295-1.651 0.8736-8.929-3.8826-7.862-6.1149-2.136 5.9208-0.194 2.5236 1.65 4.465-1.068 14.462-0.776 2.2324 4.368 0.3883-4.368 3.106 2.329 1.1647-1.844 6.2121-0.873-4.8532-1.65 5.6297 2.232 2.7177 2.427-0.1941 2.912 1.7472 1.455 2.8148h1.748z" fill="#15803D" stroke="#052E16" stroke-linejoin="round" stroke-width=".97063"/>
<path d="m372.19 309.9-32.71-4.077-17.569-2.523-25.042-3.98-2.524-0.388v0.194l-4.27 18.83-2.233-0.097-3.397-3.009-4.271 3.591-0.097 15.433-1.553 3.301v0.388l-0.194 2.426 3.397 9.124 3.009 4.077-5.436 3.203-2.135 3.98-3.494 8.541-1.747 0.388-0.097 7.086 3.009 2.233-1.553 4.27-3.495 0.194-2.038 3.786 6.988 4.368 13.201 7.377 40.767 21.645 34.554 4.27h0.388l2.718-28.633 0.68-7.086 7.279-75.127 0.389-3.494-2.524-0.291z" fill="#15803D" stroke="#052E16" stroke-linejoin="round" stroke-width=".97063"/>
<path d="m206.01 363.78 0.388 2.135v0.389l-0.388-2.524zm-14.268-8.348 0.679 1.456 0.388-0.097-1.067-1.359zm16.986-0.291 0.291 2.524 1.747 1.262-2.038-3.786zm-11.745-13.783-1.068-0.291 0.874 0.388 0.194-0.097zm-10.774-2.912-2.621 1.553 0.68 0.68 1.941-2.233zm-5.047-1.844-0.194 0.777 0.873 0.194-0.679-0.971zm8.541 1.941 4.271 2.427 0.777-0.679-5.048-1.748zm-22.713-85.027-0.097-0.291v0.388l0.097-0.097zm56.006-73.671-3.786-0.97-41.543-11.454-15.433-4.659v0.388l-0.873 9.61-4.077 11.356-6.794 8.445-0.194 4.27 3.3 5.921 1.65 7.765-2.33 6.309 0.389 6.309-1.165 2.621 3.979 8.639 2.524 3.3-0.194 9.415 6.018 5.727 3.494-5.824 3.786 3.009 1.456-1.359-5.242 0.971-0.097 4.95 1.068 6.212-2.912-2.815-1.65-3.785-0.486 5.241 1.359 10.386 5.436 6.697-3.591 4.659 0.582 5.921 3.882 6.018 6.795 18.636 2.135 1.165-0.679 12.909 1.067 1.553 14.56 5.242 4.465 4.756 1.553 3.106 4.271 2.426 4.659 0.874 1.941 5.338 3.882 1.845 5.824 6.891 5.436 9.027-0.388 8.347 3.008 3.98 39.699 3.882 3.495-0.194 1.553-4.27-3.009-2.233 0.097-7.086 1.747-0.388 3.494-8.541 2.136-3.98 5.435-3.203-3.009-4.077-3.397-9.124 0.194-2.426v-0.097l-2.524-3.397-7.765-10.386-15.044-21.16-20.966-30.09-11.842-16.403-11.453-16.501 13.2-56.005 0.874-3.689z" fill="#15803D"/>
<path d="m156.61 253.03-0.097 0.097m49.502 110.65 0.388 2.135v0.389l-0.388-2.524zm-14.268-8.348 0.679 1.456 0.388-0.097-1.067-1.359zm16.986-0.291 0.291 2.524 1.747 1.262-2.038-3.786zm-11.745-13.783-1.068-0.291 0.874 0.388 0.194-0.097zm-10.774-2.912-2.621 1.553 0.68 0.68 1.941-2.233zm-5.047-1.844-0.194 0.777 0.873 0.194-0.679-0.971zm8.541 1.941 4.271 2.427 0.777-0.679-5.048-1.748zm-22.713-85.027-0.097-0.291v0.388l0.097-0.097zm56.006-73.671-3.786-0.97-41.543-11.454-15.433-4.659v0.388l-0.873 9.61-4.077 11.356-6.794 8.445-0.194 4.27 3.3 5.921 1.65 7.765-2.33 6.309 0.389 6.309-1.165 2.621 3.979 8.639 2.524 3.3-0.194 9.415 6.018 5.727 3.494-5.824 3.786 3.009 1.456-1.359-5.242 0.971-0.097 4.95 1.068 6.212-2.912-2.815-1.65-3.785-0.486 5.241 1.359 10.386 5.436 6.697-3.591 4.659 0.582 5.921 3.882 6.018 6.795 18.636 2.135 1.165-0.679 12.909 1.067 1.553 14.56 5.242 4.465 4.756 1.553 3.106 4.271 2.426 4.659 0.874 1.941 5.338 3.882 1.845 5.824 6.891 5.436 9.027-0.388 8.347 3.008 3.98 39.699 3.882 3.495-0.194 1.553-4.27-3.009-2.233 0.097-7.086 1.747-0.388 3.494-8.541 2.136-3.98 5.435-3.203-3.009-4.077-3.397-9.124 0.194-2.426v-0.097l-2.524-3.397-7.765-10.386-15.044-21.16-20.966-30.09-11.842-16.403-11.453-16.501 13.2-56.005 0.874-3.689z" stroke="#052E16" stroke-linejoin="round" stroke-width=".97063"/>
<path d="m489.63 255.55 0.389-19.024-4.659-0.194-23.684-0.874-2.329-0.097-1.942-0.097-28.827-1.844-19.219-1.553-23.974-2.33-2.33-0.291-0.291 2.524-5.242 50.57-1.844 17.665-0.776 7.668-0.194 2.524 3.009 0.291 48.919 4.271 21.548 1.359 21.451 0.97 3.106 0.098 1.942 0.097 4.076 0.097 1.942 0.097 6.114 0.194h1.553v-1.941l1.068-51.347 0.097-5.726v-1.845l0.097-1.262z" fill="#15803D" stroke="#052E16" stroke-linejoin="round" stroke-width=".97063"/>
<path d="m294.83 295.83 10.094-62.8 5.145-31.449 0.582-3.106-2.815-0.485-10.968-2.038-27.469-5.436-2.718-0.582-2.717-0.583-13.686-3.009-24.557-5.823-2.718-0.68-0.874 3.689-13.2 56.005 11.453 16.501 11.842 16.403 20.966 30.09 15.044 21.16 7.765 10.386 2.524 3.397v-0.291l1.553-3.301 0.097-15.433 4.271-3.591 3.397 3.009 2.233 0.097 4.27-18.83v-0.194l0.486-3.106z" fill="#15803D" stroke="#052E16" stroke-linejoin="round" stroke-width=".97063"/>
<path d="m472.45 324.76 0.194-5.048 0.097-2.523-3.106-0.097-21.451-0.971-21.548-1.359-48.919-4.271-3.009-0.291-0.389 3.494-7.279 75.127-0.68 7.086-2.718 28.633 0.389 0.097 13.394 1.262 1.262-6.794 2.427-1.941 27.178 2.426h0.194l-2.427-4.756 12.327 0.874 30.769 1.747 19.219 0.873 3.3-91.045 0.679 0.097 0.097-2.62z" fill="#15803D" stroke="#052E16" stroke-linejoin="round" stroke-width=".97063"/>
<path d="m162.24 162.76 15.433 4.659 41.543 11.454 3.786 0.97 2.718 0.68 24.557 5.823 13.686 3.009 2.717 0.583 0.389-2.039 9.221-38.242-2.621-6.212 0.291-2.427 10.095-13.201 4.756-11.938-3.3-3.592-0.098-1.844v-0.097l-1.844-0.388-27.274-6.212-1.456 0.679-5.339-0.873-10.774 1.164-6.6-0.873-6.989-0.097-0.582-1.747-14.754-1.359-5.241-2.8151-0.68-1.8442 0.583-7.2798-3.494-3.7854-0.292 0.097-0.679 0.4853-4.853-2.5236-2.912 0.8736-1.941-0.9707-2.039 8.3475-1.359 2.3295-6.018 14.657-1.747 8.056-1.067 0.097-5.63 13.395-3.785 5.726-1.359 0.971-3.495 6.794-0.679 7.183-2.135 6.406 1.261 5.824v0.097zm35.526-79.689-0.292-0.8735-0.097 0.6794 0.389 0.1941z" fill="#15803D" stroke="#052E16" stroke-linejoin="round" stroke-width=".97063"/>
<path d="m352.38 204.98-25.042-3.786-13.977-2.232-2.718-0.486-0.582 3.106-5.145 31.449-10.094 62.8-0.486 3.106 2.524 0.388 25.042 3.98 17.569 2.523 32.71 4.077 2.524 0.291 0.194-2.524 0.776-7.668 1.844-17.665 5.242-50.57 0.291-2.524-1.941-0.194-24.751-3.009-3.786-0.485 2.427-18.927 0.194-1.262-2.815-0.388z" fill="#15803D" stroke="#052E16" stroke-linejoin="round" stroke-width=".97063"/>
<path d="m461.39 192.17 0.776-15.142 0.971-20.383 0.097-2.523-1.262-0.098-24.945-1.455-13.977-1.165-26.498-2.524-33.196-4.077-1.359 9.513-0.097 0.582-0.388 3.203-1.747 12.521-3.3 25.237-0.874 6.309-0.388 3.203-0.194 1.262-2.427 18.927 3.786 0.485 24.751 3.009 1.941 0.194 2.33 0.292 23.974 2.329 19.219 1.553 28.827 1.844 1.942 0.097 0.097-2.523 0.485-10.192 0.874-17.762 0.388-7.571 0.097-2.524 0.097-2.621z" fill="#15803D" stroke="#052E16" stroke-linejoin="round" stroke-width=".97063"/>
<path d="m690.46 328.06-10.483 1.553 4.271-6.795-1.844-3.785-36.981 3.591-31.255 2.524-4.562 0.291 0.583 2.718 3.785 19.606 0.097 4.368 1.068 26.402 0.097 4.367 0.291 0.097 1.456 1.553 5.824-0.194 0.582 8.542 0.194 2.426 3.009-0.291 9.221-0.679 36.593-3.397h0.194l-0.097-2.136 0.971-0.679-1.747-3.3 3.688-15.53-1.456-1.748 5.533-6.115-0.388-5.241 4.076-6.794v-0.098l-0.194-0.194 3.494-3.203-0.97-3.882 2.718-4.271-0.583-3.98 2.912-5.629v-0.097h-0.097z" fill="#15803D" stroke="#052E16" stroke-linejoin="round" stroke-width=".97063"/>
<path d="m661.53 197.7-5.338-2.815-2.912-3.98-0.971-5.726 0.777-2.621-2.815-3.397-4.756 0.485-47.755 3.98-19.122 1.067-4.853 0.292-2.038 0.097 1.65 10.774-1.359 5.144 2.135 3.203v0.68l0.68 0.097 3.106 9.124 3.009 4.756 0.194 5.435 3.3 4.562-0.582 1.941 3.009 12.23v0.292l19.897-0.583 21.257-1.844 20.869-2.621 4.756 4.174 0.194 0.194 0.874-0.388-0.68-3.786 3.592-2.232 1.455-9.9-1.455-0.68 0.873-5.047 4.368-0.874 4.853-3.494 2.136-6.115 0.097-3.106-3.883-3.688-1.165-2.33-3.688-2.329 0.194-0.486 0.097-0.485z" fill="#15803D" stroke="#052E16" stroke-linejoin="round" stroke-width=".97063"/>
<path d="m608.92 312.72-2.427-41.058-4.368-2.524-0.388-1.941-3.494-3.106 3.397-4.174-1.359-2.426-2.523 0.097-2.33-1.65-0.971-0.777-3.3 0.194-35.816 1.359-16.404 0.389h-32.613l-13.103-0.195-3.689-0.097v1.845l-0.097 5.726-1.068 51.347v1.941l4.174 0.097 22.519 0.291 52.705-0.776 37.563-1.747 3.689-0.292-0.097-2.523z" fill="#15803D" stroke="#052E16" stroke-linejoin="round" stroke-width=".97063"/>
<path d="m653.67 242.45-4.756-4.174-20.869 2.621-21.257 1.844-19.897 0.583-0.098 0.582 2.427 4.659 2.232 1.553 2.621 4.659 0.388 0.388 0.971 0.777 2.33 1.65 2.523-0.097 1.359 2.426-3.397 4.174 3.494 3.106 0.388 1.941 4.368 2.524 2.427 41.058 0.097 2.523 0.194 2.524 0.097 2.524 0.194 2.62 0.097 2.524 4.562-0.291 31.255-2.524 36.981-3.591 1.844 3.785-4.271 6.795 10.483-1.553h0.097v-0.777l0.194-4.465 1.941-2.426-0.582-2.718-0.194-0.194 0.388-1.262 0.583 0.194 0.291 0.776-0.097 0.292v0.873l0.388 0.097 0.776-0.97v-0.097l0.097-0.292 2.524-1.553 0.388-0.194 0.874-7.959-0.194-0.388-0.291-0.097-6.892-5.63 1.068-2.038-1.941-5.533-3.495-2.718-6.6-2.911-4.174-3.398 0.486-6.988 1.261-6.503-6.988 0.388-2.135-2.233-0.971-4.465-11.065-9.318-3.106-8.638 0.776-4.271-0.194-0.194z" fill="#15803D" stroke="#052E16" stroke-linejoin="round" stroke-width=".97063"/>
<path d="m572.33 204.69-3.009-3.009-10.58-3.106-3.397-0.097-5.144 1.456-6.115-3.882-19.122 0.194-27.857-0.291-32.904-1.068-2.912-0.097-0.097 2.524-0.388 7.57-0.874 17.763-0.485 10.192-0.097 2.523 2.329 0.097 23.683 0.874 4.659 0.194-0.388 19.024-0.097 1.262 3.689 0.097 13.103 0.194h32.613l16.404-0.388 35.816-1.359 3.3-0.194-0.388-0.388-2.621-4.659-2.232-1.553-2.427-4.659 0.097-0.582v-0.292l-3.009-12.23 0.583-1.941-3.3-4.562-0.194-5.435-3.009-4.756-3.106-9.124-0.68-0.097-1.844-0.195z" fill="#15803D" stroke="#052E16" stroke-linejoin="round" stroke-width=".97063"/>
<path d="m609.5 322.91-0.194-2.62-0.097-2.524-0.194-2.524-3.689 0.291-37.563 1.748-52.705 0.776-22.519-0.291-4.174-0.097h-1.553l-6.115-0.194-1.941-0.097-4.076-0.097-1.942-0.098-0.194 5.048-0.097 2.523-0.097 2.621h0.582l23.49 0.582 24.848 0.292 0.291 33.195 1.747 5.824 3.883 3.688 4.173 0.195 0.874-1.748 5.727 5.242 7.473 0.776 1.359 1.553 2.718-1.262 6.794 3.204v1.844l2.524-0.097 2.621-2.233 4.853 3.106 4.562 1.65 3.106-4.27 9.9 4.659 3.689-3.009 3.009-1.165 2.426 0.582 9.124-2.621 4.853 2.039 4.368 2.815 3.786 0.679h0.097l-0.097-4.368-1.068-26.401-0.097-4.368-3.786-19.607-0.582-2.717-0.097-2.524z" fill="#15803D" stroke="#052E16" stroke-linejoin="round" stroke-width=".97063"/>
<path d="m566.9 135.58-16.404 0.486-39.505 0.291-42.805-1.165-3.785-0.194-0.097 2.233-0.388 8.832-0.292 6.698-0.097 1.359h-0.291l-0.097 2.523-0.971 20.383-0.776 15.142-0.097 2.621 2.912 0.097 32.904 1.068 27.857 0.291 19.122-0.194 6.115 3.882 5.144-1.456 3.397 0.098 10.58 3.106 3.009 3.009 1.844 0.194v-0.68l-2.135-3.203 1.359-5.144-1.65-10.774 2.038-0.097-0.194-4.465-4.853-34.166-2.524-4.271 3.882-6.406 0.098-0.292-3.3 0.194z" fill="#15803D" stroke="#052E16" stroke-linejoin="round" stroke-width=".97063"/>
<path d="m689 469.28-1.262 0.292-0.582 0.582 1.844-0.874zm4.077 0-0.68-0.291-0.194 0.291h0.874zm2.329-0.776h-0.679l-0.389 0.485 1.068-0.485zm-1.165-0.679-0.194-0.292-0.097 0.292h0.291zm7.765-5.145-0.291 0.194h0.486l-0.195-0.194zm13.589-5.727 0.583-0.776-0.68 0.874 0.097-0.098zm1.941-2.523-0.194 0.097v0.097l0.194-0.194zm-49.89 8.541 1.456-1.844-3.98-1.068-1.747 1.456 4.271 1.456zm40.281-8.444-0.388-0.388-0.097 0.194 0.485 0.194zm1.068-1.747-0.971-0.291 0.291 0.97 0.68-0.679zm7.959-1.65v-0.292 0.292zm1.941-1.262-0.097-0.097 0.097 0.194v-0.097zm-0.776-0.194-0.194-0.097-0.097 0.291 0.291-0.194zm-6.795-0.291 0.874-0.292v-0.291l-0.874 0.583zm0.486-0.486 0.485-0.485-0.097-0.097-0.388 0.582zm-3.397-3.591-0.195 0.194h0.098l0.097-0.194zm-35.817-54.355h-0.194l-36.593 3.397-9.221 0.679-3.009 0.291 0.098 2.33 1.941 18.733 3.203 4.465 0.097 2.621 3.106 5.435 2.524 7.959-0.874 4.465-0.679 11.065-1.456 3.592h0.194l0.291 2.523-1.65 2.33 12.036-1.359 9.415 2.621 6.697 0.873 3.397-2.426-1.844-2.427 6.212-1.941-0.194 2.135 3.203-0.776 2.621 4.076 2.232-0.776 5.824 3.98-3.591 1.261 8.25 2.427h3.106l1.844-2.233 3.98-2.135 2.815 4.077 1.941-3.689-0.582-5.823 5.241 2.038 0.583 1.747 6.212 0.777 3.106 2.523-0.389 2.039 4.368-4.077-1.65-2.136-7.28-1.844-2.717-1.553-0.098-2.912 3.009 0.389 2.33-4.756-3.009-4.174-1.65 3.979-3.786-0.679 2.621-4.271-1.747-0.485-4.271 3.009-6.115 0.388-1.747-1.359 2.815-4.95 3.3-0.097 5.63 1.844 4.076 0.388-2.232-2.814-4.271-8.348 1.165-4.659-33.487 3.688 1.262-1.261-1.359-3.495 2.038-3.009 1.165-7.571 7.377-12.618-3.591-4.368 0.194-3.203-2.233-5.241v-0.679z" fill="#15803D" stroke="#052E16" stroke-linejoin="round" stroke-width=".97063"/>
<path d="m573.98 536.94-4.659-17.568v3.3l4.659 14.268zm-1.068-30.866-3.3 6.212-0.388 2.039 3.688-8.251zm2.621-4.562 3.106-4.076-2.232 1.359-0.874 2.717zm10.968-9.9-7.279 3.785 2.038-0.388 5.241-3.397zm0.971-1.359 2.038-1.65-0.776 0.194-1.262 1.456zm-115.12-162.87-0.679-0.097-3.301 91.045-19.218-0.873-30.769-1.747-12.327-0.874 2.427 4.756 0.097 0.097 10.482 10.483 6.018 7.086 7.96 5.921 5.629 10.288 2.136 10.774 4.562 3.009 3.591 3.98 5.144 1.844 7.474 4.756 3.397 1.262 4.659-4.659 1.456-4.95 2.427-4.756 7.571-3.009 2.912 1.456 8.444 0.679 7.668 4.756 5.242 0.971-1.456 2.717 3.009 1.942 2.814 3.397 0.583 3.591 1.844 2.427 4.271 10.289 4.271 3.591 3.3 5.435 4.173 4.271 1.845 0.583 1.553 11.065 4.562 2.523 0.194 3.495 1.164-0.292 7.96 9.707 3.979 0.873 5.048 3.009h7.765l5.629 3.106 6.698-1.456-3.009-2.814-2.718-8.154-1.068-7.085-1.553-2.33 0.68-4.756-2.039-0.194-2.718-4.465 3.107 3.3 3.591-1.262 1.941-5.144-3.882-5.241 5.823 0.679 2.718-4.174-0.388-1.456 2.426-3.203-0.582 2.815 2.718-2.135-1.068-3.786 3.494 1.844 4.465-2.523-4.368-4.562 2.718 1.068 5.048 0.291 6.6-1.456 7.377-4.95 4.465-3.689 0.679-2.718 2.718-2.814-1.456-4.659 0.291-2.912 4.853-2.136-0.388 5.145h2.912l-3.203 2.717 12.909-6.794 2.136-0.097 1.358-6.212h0.389l1.456-3.592 0.679-11.065 0.874-4.465-2.524-7.959-3.106-5.435-0.097-2.621-3.203-4.465-1.942-18.733-0.097-2.33-0.194-2.426-0.582-8.542-5.824 0.194-1.456-1.553-0.291-0.097h-0.097l-3.786-0.679-4.367-2.815-4.854-2.038-9.124 2.62-2.426-0.582-3.009 1.165-3.689 3.009-9.9-4.659-3.106 4.27-4.562-1.65-4.853-3.106-2.621 2.233-2.523 0.097v-1.844l-6.795-3.203-2.718 1.261-1.358-1.553-7.474-0.776-5.727-5.241-0.874 1.747-4.173-0.194-3.883-3.689-1.747-5.824-0.291-33.195-24.848-0.291-23.49-0.583h-0.582z" fill="#15803D" stroke="#052E16" stroke-linejoin="round" stroke-width=".97063"/>
<path d="m937 143.34-13.977 5.338-0.194-0.485-7.862 2.329-1.747 0.486 0.194 0.97 3.688 14.268 1.165 1.456-2.524 3.106 1.748 1.65 5.629-5.435 3.009-4.174 0.583 1.165 14.171-6.309 0.291-0.291-0.097-2.33-0.583-2.038-3.008-8.445-0.389-1.067-0.097-0.194z" fill="#15803D" stroke="#052E16" stroke-linejoin="round" stroke-width=".97063"/>
<path d="m923.89 75.983-1.262 1.553-1.456-0.2911-0.777 6.4061v0.0971l2.33 8.7357-0.194 1.7471-4.174 5.5326 1.068 5.0468v6.31l-0.777 5.823 4.368 15.919 3.98-1.262 12.23-4.077 5.532-6.018v-1.553l0.291-2.523-0.679 0.291-0.097-0.583-6.115-7.473-0.194-0.68-14.074-33.001z" fill="#15803D" stroke="#052E16" stroke-linejoin="round" stroke-width=".97063"/>
<path d="m946.51 152.08-0.097-2.038-0.291 0.776 0.388 1.262zm1.942-1.553-1.262-2.426-0.097 2.523 1.359-0.097zm-0.583-3.009 0.68 1.747 0.873 1.553 0.583-1.164-0.874-1.65-0.291-1.165h-0.971v0.679zm-10.774-3.979 0.389 1.067 3.008 8.445 0.583 2.038 0.097 2.33 0.194-0.291 4.659-3.689-0.873-6.6 1.941-0.388-4.271-5.145-4.465 1.747-1.262 0.486z" fill="#15803D" stroke="#052E16" stroke-linejoin="round" stroke-width=".97063"/>
<path d="m923.02 132.86-4.368-15.919 0.777-5.823v-6.31l-1.068-5.0468 4.174-5.5326 0.194-1.7471-2.33-8.7357-1.261 0.4853-5.339 1.9413-5.241 2.0383-12.036 4.3678-0.68 0.1942 4.368 10.191 1.456 9.61 5.145 8.056 4.853 15.918 0.194-0.097 0.776-0.291 2.233-0.68 1.941-0.679 5.533-1.65 0.679-0.291z" fill="#15803D" stroke="#052E16" stroke-linejoin="round" stroke-width=".97063"/>
<path d="m718.31 344.85 0.388 0.776 1.359 0.874 0.583 39.796 0.194 21.839 4.95 29.895 0.388-0.097 4.368 0.874 1.165-8.639 1.941 4.853 3.3 3.009 6.309-3.688-0.679-0.583 0.194 0.097-4.368-9.997 41.931-6.794 2.815-0.486v-0.097l-2.621-4.95-0.194-7.086-2.135-3.882 1.068-7.571 1.747-1.941-7.183-12.813-13.006-39.601-0.097-0.195-2.912 0.486-15.53 2.523-7.765 0.971-16.307 2.232 0.097 0.195z" fill="#15803D" stroke="#052E16" stroke-linejoin="round" stroke-width=".97063"/>
<path d="m854.69 535.28h-0.194l0.097 0.098 0.097-0.098zm-0.874-0.097v0.097h0.097l-0.097-0.097zm-14.074 1.456h-0.097v0.097l0.097-0.097zm27.566-6.115h-0.097l0.097 0.194v-0.194zm2.621-0.679v-0.194l-0.194 0.291 0.194-0.097zm-0.971-0.194-0.388-0.389-0.097 0.098 0.485 0.291zm-0.291 0.776-1.165-1.456 0.68 1.262 0.485 0.194zm9.221-5.726v0.388l0.194-0.194-0.194-0.194zm1.359-0.971 0.291-0.485-0.388 0.388 0.097 0.097zm0.291-0.971h-0.097v0.097l0.097-0.097zm-0.874-1.747-0.097-0.097v0.194l0.097-0.097zm0.68-2.329-0.194 0.097 0.291 0.097-0.097-0.194zm0.388 0-0.194-0.195 0.097 0.292 0.097-0.097zm-0.679-0.195-0.098-0.097v0.194l0.098-0.097zm3.591-0.679v-0.097l-0.194 0.388 0.194-0.291zm-4.077 0.388h-0.194l0.194 0.097v-0.097zm2.039-1.165h-0.292l-0.097 0.098 0.389-0.098zm-7.377-0.097v-0.194l-0.097 0.194h0.097zm0.873-0.291h-0.291l0.291 0.583v-0.583zm-2.329 0.097v-0.582l-0.485 0.097 0.485 0.485zm-1.359-0.97 0.485 0.485v-0.194l-0.485-0.291zm14.268 0.582-1.747 0.777 0.582 0.097 1.165-0.874zm-13.589-0.874h-0.582v0.195l0.582-0.195zm15.336-4.853 0.097-0.485 0.098-1.262-0.195 1.747zm0.097-5.435-0.388-0.971-0.194 0.388 0.582 0.583zm-22.421 2.426-0.194 0.292 0.485 0.097-0.291-0.389zm-1.844-0.873-0.874 0.291 0.68 0.097 0.194-0.388zm-1.942 0.194v-0.291l-0.097 0.097 0.097 0.194zm-2.038-0.097-0.582 0.388 0.776 0.388-0.194-0.776zm2.718 0.097-0.097-0.291-0.486-0.097 0.583 0.388zm-12.715-9.512-0.583 0.291 1.165 0.388-0.582-0.679zm-2.33-3.106-0.776-1.165 0.291 0.874 0.485 0.291zm3.009 1.941-1.359-3.106-0.97-0.291 2.329 3.397zm-3.882-3.883-0.292-0.776-0.194-0.485 0.486 1.261zm-8.057-10.774-1.747-1.261 0.68 0.679 1.067 0.582zm43.679-6.503-7.086-11.841h-0.388l7.474 11.841zm-49.017-18.927-0.291-0.097 0.291 0.194v-0.097zm-0.583-0.68-0.097 0.098 0.097 0.097v-0.195zm-0.679-0.97v-0.097l-0.097 0.097h0.097zm0.388-0.388 0.291 0.194v-0.194h-0.291zm0.583-0.389-0.389 0.097h0.097l0.292-0.097zm-0.68-0.097-0.291-0.291 0.291 0.291zm-0.679-1.067h-0.194l0.291 0.097-0.097-0.097zm0.679-1.165h-0.388l-0.097 0.097 0.485-0.097zm0.388 0.194-0.485-0.485 0.194 0.097 0.291 0.388zm-3.688-4.174-0.194-0.097v0.097h0.194zm-4.174 0-0.291-0.388 0.097 0.485 0.194-0.097zm-35.331-3.203 2.912-2.232-3.203 2.135 0.291 0.097zm5.824-4.659 0.291-0.291-1.164 0.485 0.873-0.194zm-36.884-6.503-10.58 3.397 5.824-1.65 4.756-1.747zm26.304-16.501-2.815 0.485-41.931 6.795 4.368 9.997 0.291 0.097-1.067 3.98 3.106-1.359 3.397-3.009 5.823-0.194 6.698-2.426 4.562 0.679-1.068 1.65 8.348 2.815 7.182 3.494 1.65 3.883 5.339-1.165 12.618-10.289 4.659 0.194 19.024 14.366 3.883-0.777 4.077 5.436 0.776 8.638-1.262 5.436 0.583 2.718 3.397 6.794-1.553-5.338 4.368-0.098 0.388 3.883-2.33 6.018 8.057 11.065 3.009 0.097-2.524-3.397 3.106 0.388 1.844-1.165-0.776 6.213 4.173 3.3 2.815 7.571 3.786 2.329 4.853 1.262 6.697 8.541 3.494 1.845-4.659 0.291 2.136 2.426 7.668-2.523 3.785-2.136 3.495-12.23-1.748-19.024-0.388-1.941-9.318-15.53-7.959-11.26-4.465-9.221 3.786 3.204 0.776-0.583 1.65 8.056 4.271 6.115-4.174-8.153 0.194-3.882-12.521-15.239-3.009-4.756-3.979-8.057-2.718-6.794-2.136-2.427-0.485-3.106-0.097-0.097-6.697-0.388-2.621 2.038-1.456 7.474-1.359-3.494-45.814 5.727-3.3-5.145 0.097-0.097z" fill="#15803D"/>
<path d="m854.01 535.09v-0.097m-13.2 1.553v0.097m-0.194 0v-0.097m37.175-14.074-0.097-0.097m-1.65-1.456-0.097-0.097m5.435-4.271h-0.097m-26.595 18.733h-0.194l0.097 0.098 0.097-0.098zm-0.874-0.097v0.097h0.097l-0.097-0.097zm-14.074 1.456h-0.097v0.097l0.097-0.097zm27.566-6.115h-0.097l0.097 0.194v-0.194zm2.621-0.679v-0.194l-0.194 0.291 0.194-0.097zm-0.971-0.194-0.388-0.389-0.097 0.098 0.485 0.291zm-0.291 0.776-1.165-1.456 0.68 1.262 0.485 0.194zm9.221-5.726v0.388l0.194-0.194-0.194-0.194zm1.359-0.971 0.291-0.485-0.388 0.388 0.097 0.097zm0.291-0.971h-0.097v0.097l0.097-0.097zm-0.874-1.747-0.097-0.097v0.194l0.097-0.097zm0.68-2.329-0.194 0.097 0.291 0.097-0.097-0.194zm0.388 0-0.194-0.195 0.097 0.292 0.097-0.097zm-0.679-0.195-0.098-0.097v0.194l0.098-0.097zm3.591-0.679v-0.097l-0.194 0.388 0.194-0.291zm-4.077 0.388h-0.194l0.194 0.097v-0.097zm2.039-1.165h-0.292l-0.097 0.098 0.389-0.098zm-7.377-0.097v-0.194l-0.097 0.194h0.097zm0.873-0.291h-0.291l0.291 0.583v-0.583zm-2.329 0.097v-0.582l-0.485 0.097 0.485 0.485zm-1.359-0.97 0.485 0.485v-0.194l-0.485-0.291zm14.268 0.582-1.747 0.777 0.582 0.097 1.165-0.874zm-13.589-0.874h-0.582v0.195l0.582-0.195zm15.336-4.853 0.097-0.485 0.098-1.262-0.195 1.747zm0.097-5.435-0.388-0.971-0.194 0.388 0.582 0.583zm-22.421 2.426-0.194 0.292 0.485 0.097-0.291-0.389zm-1.844-0.873-0.874 0.291 0.68 0.097 0.194-0.388zm-1.942 0.194v-0.291l-0.097 0.097 0.097 0.194zm-2.038-0.097-0.582 0.388 0.776 0.388-0.194-0.776zm2.718 0.097-0.097-0.291-0.486-0.097 0.583 0.388zm-12.715-9.512-0.583 0.291 1.165 0.388-0.582-0.679zm-2.33-3.106-0.776-1.165 0.291 0.874 0.485 0.291zm3.009 1.941-1.359-3.106-0.97-0.291 2.329 3.397zm-3.882-3.883-0.292-0.776-0.194-0.485 0.486 1.261zm-8.057-10.774-1.747-1.261 0.68 0.679 1.067 0.582zm43.679-6.503-7.086-11.841h-0.388l7.474 11.841zm-49.017-18.927-0.291-0.097 0.291 0.194v-0.097zm-0.583-0.68-0.097 0.098 0.097 0.097v-0.195zm-0.679-0.97v-0.097l-0.097 0.097h0.097zm0.388-0.388 0.291 0.194v-0.194h-0.291zm0.583-0.389-0.389 0.097h0.097l0.292-0.097zm-0.68-0.097-0.291-0.291 0.291 0.291zm-0.679-1.067h-0.194l0.291 0.097-0.097-0.097zm0.679-1.165h-0.388l-0.097 0.097 0.485-0.097zm0.388 0.194-0.485-0.485 0.194 0.097 0.291 0.388zm-3.688-4.174-0.194-0.097v0.097h0.194zm-4.174 0-0.291-0.388 0.097 0.485 0.194-0.097zm-35.331-3.203 2.912-2.232-3.203 2.135 0.291 0.097zm5.824-4.659 0.291-0.291-1.164 0.485 0.873-0.194zm-36.884-6.503-10.58 3.397 5.824-1.65 4.756-1.747zm26.304-16.501-2.815 0.485-41.931 6.795 4.368 9.997 0.291 0.097-1.067 3.98 3.106-1.359 3.397-3.009 5.823-0.194 6.698-2.426 4.562 0.679-1.068 1.65 8.348 2.815 7.182 3.494 1.65 3.883 5.339-1.165 12.618-10.289 4.659 0.194 19.024 14.366 3.883-0.777 4.077 5.436 0.776 8.638-1.262 5.436 0.583 2.718 3.397 6.794-1.553-5.338 4.368-0.098 0.388 3.883-2.33 6.018 8.057 11.065 3.009 0.097-2.524-3.397 3.106 0.388 1.844-1.165-0.776 6.213 4.173 3.3 2.815 7.571 3.786 2.329 4.853 1.262 6.697 8.541 3.494 1.845-4.659 0.291 2.136 2.426 7.668-2.523 3.785-2.136 3.495-12.23-1.748-19.024-0.388-1.941-9.318-15.53-7.959-11.26-4.465-9.221 3.786 3.204 0.776-0.583 1.65 8.056 4.271 6.115-4.174-8.153 0.194-3.882-12.521-15.239-3.009-4.756-3.979-8.057-2.718-6.794-2.136-2.427-0.485-3.106-0.097-0.097-6.697-0.388-2.621 2.038-1.456 7.474-1.359-3.494-45.814 5.727-3.3-5.145 0.097-0.097z" stroke="#052E16" stroke-linejoin="round" stroke-width=".97063"/>
<path d="m845.85 396.1-0.097-2.912-0.68 2.524 0.777 0.388zm1.068-4.465-0.389-2.232-0.291 1.358 0.68 0.874zm-45.426-61.15-1.262 0.291-3.688 0.777-13.589 2.815-1.262 0.291-1.359 0.194-7.571 1.456-2.038 0.388-8.25 1.553-1.747 0.194 0.097 0.195 13.006 39.601 7.183 12.813-1.747 1.941-1.068 7.571 2.135 3.882 0.195 7.086 2.62 4.95v0.097l-0.097 0.097 3.3 5.145 45.814-5.727 1.359 3.494 1.456-7.474 2.621-2.038 6.697 0.388-0.582-10.483 1.261-2.232-0.679-4.174 1.359-3.979 2.038-2.233-1.456-1.359 3.397-4.173h-0.097l-5.823-5.436-7.96-11.356-4.367-2.039-18.734-15.724-4.562-5.824-8.832-3.688-0.486-1.941 2.718-5.339z" fill="#15803D" stroke="#052E16" stroke-linejoin="round" stroke-width=".97063"/>
<path d="m716.76 442.78-0.485 0.097v0.097l0.485-0.194zm9.027-1.164h-1.359l1.262 0.097 0.097-0.097zm-11.259 0.97-0.389 0.388 0.097 0.098 0.292-0.486zm9.123-0.776h-3.688l3.494 0.097 0.194-0.097zm-40.475-92.502v0.098l-4.077 6.794 0.389 5.241-5.533 6.115 1.456 1.748-3.688 15.53 1.747 3.3-0.971 0.679 0.097 2.136v0.679l2.233 5.241-0.194 3.204 3.591 4.367-7.377 12.619-1.165 7.57-2.038 3.009 1.359 3.495-1.262 1.262 33.487-3.689-1.165 4.659 4.271 8.348 2.232 2.814v-0.097l3.592-4.076 7.571-1.65 6.988 0.776 1.068-1.359v-0.097l-4.95-29.895-0.194-21.84-0.583-39.795-1.359-0.874-0.388-0.776h-0.194l-4.853 0.679-8.542 1.165-19.412 2.426-2.136 0.194z" fill="#15803D" stroke="#052E16" stroke-linejoin="round" stroke-width=".97063"/>
<path d="m801.5 330.48-2.718 5.339 0.486 1.941 8.832 3.688 4.562 5.824 18.734 15.724 4.367 2.039 7.96 11.356 5.823 5.436 0.971-4.465-1.553-4.271 4.174 3.106 2.329-1.844-3.979-3.3 4.853-0.292 7.571-6.406-0.874-1.65 4.659-3.591-0.485-1.747 3.397-2.136 0.194-4.95 5.339-9.9 3.591-4.562 0.388-0.194-21.645-13.686-8.056 1.553-10.968-0.389-5.436-2.814-32.225 10.191h-0.291z" fill="#15803D" stroke="#052E16" stroke-linejoin="round" stroke-width=".97063"/>
<path d="m661.43 198.18-0.194 0.486 3.688 2.329 1.165 2.33 3.883 3.688-0.098 3.106-2.135 6.115-4.853 3.494-4.368 0.874-0.874 5.047 1.456 0.679-1.456 9.901-3.591 2.232 0.68 3.786-0.874 0.388-0.776 4.271 3.106 8.638 11.065 9.319 0.97 4.464 2.136 2.233 6.988-0.388-1.261 6.503-0.486 6.988 4.174 3.398 6.6 2.912 3.494 2.717 1.942 5.533-1.068 2.038 6.892 5.63 0.291 0.097-0.583-0.582 1.942-4.562 7.473 2.038 1.845-2.135-1.456-4.271 6.115-3.592-1.65-2.329 1.456-3.3v-0.291l-0.389-0.097 0.097-8.639 2.136-1.553 3.688-8.639-0.776-3.785-2.427-4.562 1.359-5.145-6.794-47.852-0.971-1.067-2.524-5.727-2.038-2.135-0.874-5.63v-0.194l-13.103 1.844-7.862 0.971-21.16 2.426z" fill="#15803D" stroke="#052E16" stroke-linejoin="round" stroke-width=".97063"/>
<path d="m750.34 200.22-14.851 2.62-3.397 0.68-12.036 1.941-2.524 2.038-3.785 1.747-1.456-0.097-1.747-0.873-0.582-0.583 6.794 47.852-1.359 5.145 2.427 4.562 0.776 3.785-3.688 8.639-2.136 1.553-0.097 8.638 0.389 0.098 0.388-0.098 1.456-2.717h3.591l4.368-1.456 5.435 2.038 0.583-2.232 3.106-2.33 4.659 0.68 2.524-4.951 6.891 0.583-0.097-2.815 6.115-8.056-0.971-3.689 4.271-0.097 5.241-4.174-1.261-4.756 0.194-0.194-0.194-1.65-5.824-34.36-2.621-14.657-0.291-1.553-0.291-1.261z" fill="#15803D" stroke="#052E16" stroke-linejoin="round" stroke-width=".97063"/>
<path d="m693.17 317.18-0.291-0.777-0.583-0.194-0.388 1.262 0.097 0.097 1.068-0.097 0.097-0.291zm66.391-63.48-0.194 0.194 1.262 4.757-5.242 4.173-4.271 0.097 0.971 3.689-6.115 8.056 0.097 2.815-6.891-0.583-2.524 4.951-4.659-0.68-3.106 2.33-0.582 2.232-5.436-2.038-4.368 1.456h-3.591l-1.456 2.718-0.388 0.097v0.291l-1.456 3.3 1.65 2.329-6.115 3.592 1.456 4.271-1.844 2.135-7.474-2.038-1.942 4.562 0.583 0.582 0.194 0.388-0.874 7.959-0.388 0.195-2.524 1.553-0.097 0.291 2.815-0.388 19.607-2.621-0.971-3.883 3.3-0.097 39.505-5.241 27.76-4.659 0.388-0.291 0.68-0.777 7.28-3.882 5.629-7.377 0.777-2.524 3.688-2.912 4.659-5.921 0.68-0.97-0.292-0.097h-2.426l-3.106-1.748-5.533-6.697-1.941-6.794v-0.194l-0.194-0.195-4.077-2.329-1.844-3.106-3.688 3.591-2.33 0.583-2.912-1.165-2.523 1.941-5.242-2.329-1.359 0.582-4.95-4.271-2.524-1.262-4.756 0.583-0.776 0.776z" fill="#15803D" stroke="#052E16" stroke-linejoin="round" stroke-width=".97063"/>
<path d="m890.21 332.23-1.068 1.068 0.194 0.194 0.874-1.262zm0.776-5.629-0.485 0.776 0.194 0.777 0.291-1.553zm5.824-9.027-1.456 0.97-0.776 1.165 2.232-2.135zm12.521-6.115-0.582-0.388-1.262-0.097 1.844 0.485zm-2.62-0.583h-0.874l-1.456 0.777 2.33-0.777zm3.008 1.068 2.815-6.988-1.941 2.912-0.874 4.076zm4.174-9.221 1.262-1.844h-0.679l-0.583 1.844zm8.154-7.571-2.136-10.774 1.844 5.63 0.292 5.144zm-11.842-24.557-0.194 0.097-0.292 0.097h0.098l5.338 9.027 4.174 4.174-9.124-13.395zm-1.747 0.583-0.777 0.194 0.194 0.097h1.65l-0.194-0.582-0.291 0.097h-0.291v0.194l-0.194 0.097-0.097-0.097zm-89.784 22.13-0.485 1.456 0.097 4.174-1.068-0.097-2.523 5.144-2.815 0.291-5.241 5.144-2.33-0.873-3.009 4.465-7.959 7.183-3.883 0.97-4.076 3.786-0.194 2.523-3.592 1.941 0.097 4.271v0.971l1.262-0.291 13.589-2.815 3.688-0.777 1.262-0.291h0.291l32.225-10.191 5.436 2.814 10.968 0.389 8.056-1.553 21.645 13.686 0.389-0.292 9.997-4.076 0.097-5.339 3.592-6.503 3.882-3.688 8.056-5.339 1.068-1.941 2.135 0.97 0.971-6.406-1.165 2.233-4.076 1.359-3.883 0.097 4.756-3.495-1.456-1.553 1.65-3.494-9.124-1.456-0.388-0.485 7.765-1.456 2.524 1.262 3.203-0.291 2.621-1.942 1.941-3.785 1.747-0.485-0.291-5.339-2.233-2.135-2.232 2.038 0.485 5.144-1.65-6.309-1.262-0.291-9.609 3.98 4.271-4.174 0.194-1.65 4.465-1.068 1.262-3.3 3.009 1.747-3.203-4.756-2.233-1.941-38.825 11.065-24.751 6.309-25.043 4.659-0.097-0.194z" fill="#15803D" stroke="#052E16" stroke-linejoin="round" stroke-width=".97063"/>
<path d="m818.19 206.63-2.427-10.483-0.485-2.136-2.718-11.938-3.494 2.232-7.474 5.727-4.853 5.921-3.785 0.582-6.989 3.98-3.883-2.33-11.744-1.359-6.212 1.553-6.115 1.456-6.406 1.359-0.971 0.291 0.291 1.553 2.621 14.657 5.824 34.36 0.194 1.65 0.776-0.776 4.756-0.583 2.524 1.262 4.95 4.271 1.359-0.582 5.242 2.329 2.523-1.941 2.912 1.165 2.33-0.583 3.688-3.591 1.844 3.106 4.077 2.329 0.194 0.195 4.174-2.039 1.456-3.203-1.165-3.3 3.3-5.047 2.427-0.388-0.292-4.271 3.98-5.436 0.679 0.777 3.592-2.718 3.106-4.659 0.485-21.257 0.194-0.097-0.485-2.038z" fill="#15803D" stroke="#052E16" stroke-linejoin="round" stroke-width=".97063"/>
<path d="m786.26 300.49-27.76 4.659-39.505 5.241-3.3 0.097 0.971 3.883-19.607 2.62-2.815 0.389v0.097l-0.776 0.97-0.388-0.097v-0.873l-1.068 0.097 0.097 0.097 0.582 2.718-1.941 2.426-0.194 4.465v0.874l-2.912 5.629 0.583 3.98-2.718 4.271 0.97 3.882-3.494 3.203 0.194 0.195 2.136-0.195 19.412-2.426 8.542-1.165 4.853-0.679h0.194l-0.097-0.194 16.307-2.233 7.765-0.971 15.53-2.523 2.912-0.486 1.747-0.194 8.25-1.553 2.038-0.388 7.571-1.456 1.359-0.194v-0.971l-0.097-4.27 3.591-1.942 0.195-2.523 4.076-3.786 3.883-0.97 7.959-7.183 3.009-4.465 2.329 0.874 5.242-5.145 2.815-0.291 2.523-5.144 1.068 0.097-0.097-4.174 0.485-1.456-1.553 0.291-5.532 1.553-6.601 1.359-16.597 3.398-1.748 0.291-0.388 0.291z" fill="#15803D" stroke="#052E16" stroke-linejoin="round" stroke-width=".97063"/>
<path d="m908.75 270.98h0.291l0.291-0.098-0.194-0.485-0.388 0.583zm-3.3-10.872v0.486l0.485-0.291-0.485-0.195zm1.164-2.232-0.194 1.262-0.291 0.485 0.485-1.747zm0.874-2.524 0.097-0.582-0.194 0.582h0.097zm0.582-2.62 0.292-0.68-0.486 1.747 0.194-1.067zm0.098-1.456 0.388-2.136-0.486 0.486 0.098 1.65zm1.747-9.61 0.194-0.873-0.097 0.194-0.097 0.679zm-0.389-2.232-1.261 0.485-1.942 0.874-0.679 0.873 0.291 0.098-2.329 14.462 0.873 2.329 1.359-6.017 2.524-7.863 1.164-5.144v-0.097zm1.942-0.776-0.292 0.097-0.097 0.388-0.485 3.009 0.388-1.068 0.486-2.426zm-101.43 37.175-0.68 0.97-4.659 5.921-3.688 2.912-0.777 2.524-5.629 7.377-7.28 3.882-0.679 0.777 1.747-0.292 16.597-3.397 6.601-1.359 5.532-1.553 1.553-0.291 0.097 0.194 25.043-4.659 24.751-6.309 38.825-11.065-0.291-0.485-0.097-0.292 0.679 0.68 0.777-0.194-0.097-0.097-0.68-3.301 0.485 0.098 1.553 2.911 0.292-0.097 0.194-0.097-0.388-0.776-3.98-6.115-4.95 0.873-2.233 1.844-2.135-1.941-7.28-2.426-5.047-0.194 9.803-0.874 5.436 3.688 1.553-2.426-4.368-5.533 3.106 0.194-1.65-4.465-3.883 0.195-9.221-7.474h-1.164l13.006 6.406-0.873-4.465 0.873-1.456-6.6-2.524-5.727-0.388-2.815-2.524-2.329 1.456-0.874-6.697 0.971 0.194-0.194-5.435-0.194-0.195-0.195 0.098-0.194-0.098-0.485-0.388-0.291-0.291-3.106-1.359-3.203-2.329-4.465-1.165-0.291-0.097v0.097l-0.583 4.077-9.027-3.883 0.194 5.63-4.95 9.415-3.009 3.3-1.941 5.727-5.921-2.039-2.912 13.201-2.329 4.465-0.389 5.824-1.747 2.814-6.503 1.942-5.338 4.173-2.524 0.389-2.427 2.135-6.115-2.232-1.067-3.009-0.194-0.097z" fill="#15803D"/>
<path d="m907.2 256.71-0.097-0.776m1.65 15.045h0.291l0.291-0.098-0.194-0.485-0.388 0.583zm-3.3-10.872v0.486l0.485-0.291-0.485-0.195zm1.164-2.232-0.194 1.262-0.291 0.485 0.485-1.747zm0.874-2.524 0.097-0.582-0.194 0.582h0.097zm0.582-2.62 0.292-0.68-0.486 1.747 0.194-1.067zm0.098-1.456 0.388-2.136-0.486 0.486 0.098 1.65zm1.747-9.61 0.194-0.873-0.097 0.194-0.097 0.679zm-0.389-2.232-1.261 0.485-1.942 0.874-0.679 0.873 0.291 0.098-2.329 14.462 0.873 2.329 1.359-6.017 2.524-7.863 1.164-5.144v-0.097zm1.942-0.776-0.292 0.097-0.097 0.388-0.485 3.009 0.388-1.068 0.486-2.426zm-101.43 37.175-0.68 0.97-4.659 5.921-3.688 2.912-0.777 2.524-5.629 7.377-7.28 3.882-0.679 0.777 1.747-0.292 16.597-3.397 6.601-1.359 5.532-1.553 1.553-0.291 0.097 0.194 25.043-4.659 24.751-6.309 38.825-11.065-0.291-0.485-0.097-0.292 0.679 0.68 0.777-0.194-0.097-0.097-0.68-3.301 0.485 0.098 1.553 2.911 0.292-0.097 0.194-0.097-0.388-0.776-3.98-6.115-4.95 0.873-2.233 1.844-2.135-1.941-7.28-2.426-5.047-0.194 9.803-0.874 5.436 3.688 1.553-2.426-4.368-5.533 3.106 0.194-1.65-4.465-3.883 0.195-9.221-7.474h-1.164l13.006 6.406-0.873-4.465 0.873-1.456-6.6-2.524-5.727-0.388-2.815-2.524-2.329 1.456-0.874-6.697 0.971 0.194-0.194-5.435-0.194-0.195-0.195 0.098-0.194-0.098-0.485-0.388-0.291-0.291-3.106-1.359-3.203-2.329-4.465-1.165-0.291-0.097v0.097l-0.583 4.077-9.027-3.883 0.194 5.63-4.95 9.415-3.009 3.3-1.941 5.727-5.921-2.039-2.912 13.201-2.329 4.465-0.389 5.824-1.747 2.814-6.503 1.942-5.338 4.173-2.524 0.389-2.427 2.135-6.115-2.232-1.067-3.009-0.194-0.097z" stroke="#052E16" stroke-linejoin="round" stroke-width=".97063"/>
<path d="m705.79 134.8-2.427 3.009-1.456 4.368 0.68 2.426 3.203-9.803zm-55.714-22.81 1.456-2.038-1.068 0.97-0.388 1.068zm2.232-3.203-0.485-0.582-1.068 0.679 1.553-0.097zm-21.16 5.436-2.232 2.523 1.068 11.648-6.212 5.629-1.165 5.436 3.397 3.106-0.971 13.395 3.592 2.718 2.329 0.194 7.377 4.465 4.659 4.853 5.921 3.009 1.359 7.474v0.485l2.815 3.397-0.777 2.621 0.971 5.726 2.912 3.98 5.338 2.815-0.097 0.485 21.16-2.426 7.862-0.971 13.103-1.844-0.388-1.456v-4.562l-2.621-4.853-0.679-6.115 1.262-6.795-0.68-5.241 2.33-6.503-0.874-1.068 0.194-6.018 1.262-4.562-1.456-1.553-2.815 0.971-1.553 4.076-3.688 2.136 1.165-5.145 3.3-4.367 0.194-1.942 0.097-0.097-4.659-4.659v-6.6l-5.241-4.271-7.183-0.485-7.377-1.941-15.918-4.854-3.106-1.747-0.291 0.291-4.951-0.679-1.65 0.971 0.68-7.086-7.959 4.077-9.707 1.553-0.097-0.194zm19.025-5.145-0.194-0.679-0.68 0.291 0.874 0.388zm-3.495-0.679 0.292-0.583-0.195-0.194-0.097 0.777zm7.086-1.65-0.291-1.359-0.291 1.65 0.582-0.291z" fill="#15803D" stroke="#052E16" stroke-linejoin="round" stroke-width=".97063"/>
<path d="m836.73 223.71-13.783 3.397-4.271-18.442-0.194 0.097-0.485 21.257-3.106 4.659-3.592 2.718-0.679-0.777-3.98 5.436 0.292 4.271-2.427 0.388-3.3 5.047 1.165 3.3-1.456 3.203-4.174 2.039v0.194l1.941 6.794 5.533 6.698 3.106 1.747h2.426l0.292 0.097 0.194 0.097 1.067 3.009 6.115 2.232 2.427-2.135 2.524-0.388 5.338-4.174 6.503-1.941 1.747-2.815 0.389-5.824 2.329-4.465 2.912-13.2 5.921 2.038 1.941-5.727 3.009-3.3 4.95-9.415-0.194-5.63 9.027 3.883 0.583-4.077v-0.097l-2.815-4.853-5.824-0.68-3.397 2.621v1.941l-2.912 0.68-4.271 3.009-2.232 0.485-4.465 6.309-2.233-10.191-1.941 0.485z" fill="#15803D" stroke="#052E16" stroke-linejoin="round" stroke-width=".97063"/>
<path d="m893.8 207.7 0.388 1.456 8.057 23.004 9.221-2.717-0.097-0.195h0.194l0.291 0.097 0.194-0.097-0.194-0.388-2.33-6.212-11.356-10.774 0.485-7.474h-2.329l-1.747 1.359-0.777 1.941z" fill="#15803D" stroke="#052E16" stroke-linejoin="round" stroke-width=".97063"/>
<path d="m878.18 229.15 0.485 0.389 0.194 0.097 0.195-0.097 0.194 0.097 0.679 0.388 0.194 0.291v0.68l0.194 0.388 1.262-2.33-1.359-0.776-1.65 0.097-0.388 0.776z" fill="#15803D" stroke="#052E16" stroke-linejoin="round" stroke-width=".97063"/>
<path d="m911.57 238.27 0.679-5.241-0.582 3.882-0.389 1.65-0.097 0.195 0.292-0.098 0.097-0.388zm0.485-9.027-0.194 0.097 0.194 0.583v1.165-1.845zm-73.38-6.018 2.233 10.192 4.465-6.309 2.232-0.485 4.271-3.009 2.912-0.68v-1.941l3.397-2.621 5.824 0.68 2.815 4.853 0.291 0.097 4.465 1.165 3.203 2.329 3.106 1.359 0.291 0.291 0.388-0.776 1.65-0.097 1.359 0.776-1.262 2.33v0.097l-1.844 5.63 6.018 3.882 6.018 0.291 3.98 1.844-1.65-4.659-5.145-1.747-1.262-3.979 3.203 4.27 2.621 0.389-2.329-2.33-1.845-6.891 0.486-3.98-2.039-4.368 2.136-1.747 1.553-5.63-0.583 8.348 1.65 2.815 1.554-3.3 0.873 5.435-1.65 3.98 4.756 1.747-4.077 1.359 2.136 3.979 3.494 1.165 1.941-3.397-0.194 4.756 3.3-0.097 2.136 2.426h0.097l0.679-0.873 1.942-0.874 1.261-0.485-0.097-0.194 2.524-7.474v-0.291l-0.485-1.941v-0.098l-9.221 2.718-8.057-23.004-0.388-1.456-1.65 0.486-6.891 2.135-37.952 10.58-6.892 1.844-1.747 0.485z" fill="#15803D" stroke="#052E16" stroke-linejoin="round" stroke-width=".97063"/>
<path d="m916.81 207.31-0.485-1.165v1.165h0.485zm0.971-3.591 0.291-2.912-0.582 2.524 0.291 0.388zm-3.98-29.799-10.191-2.523-1.748-0.486-1.65-0.388-4.076 9.027 1.747 2.135-0.097 6.504 1.844 0.291 3.785 9.9-0.194 0.292-4.756 6.988 0.485 5.339 11.454 3.882 0.097 4.465 2.621-3.688 0.388-5.339 2.718-1.844-1.068-3.98 2.038-4.756v-10.386l-0.679-3.397-4.562 0.097 1.165-4.659 0.679-7.474z" fill="#15803D" stroke="#052E16" stroke-linejoin="round" stroke-width=".97063"/>
<path d="m913.51 181.78-1.456 2.038-0.388 0.582 1.844-2.62zm13.395-4.757 4.853-4.27v-0.194l-4.853 4.464zm-12.716 3.009v-3.3l-0.291 1.747 0.291 1.553zm22.519-15.53-1.165-0.291-0.194 0.874 1.359-0.583zm2.621-1.747-0.097 0.971 0.194-0.583-0.097-0.388zm-2.718 0.097-6.503 6.018-9.998 4.271-2.62 2.232-0.195 2.136-2.717 2.232 0.388 2.912 4.174-1.65 6.115-4.95 6.794-3.591 10.289-9.707-7.28 5.533-2.33 0.97 3.883-6.406zm3.009-4.076 0.388-0.583-1.165 1.359 0.777-0.776zm-109.1-3.592-1.553-0.194 1.165 1.553 0.388-1.359zm32.225-29.701 0.194-1.068-0.776 0.971 0.582 0.097zm0.485-6.989-0.388 0.195-0.485 1.067 0.873-1.262zm-41.057 55.132 0.679 2.912 5.144 1.262 29.508-8.056 29.701-8.93 5.435 4.174 1.068 2.426 6.309 2.718 0.194 0.388 1.65 0.388 1.748 0.486 10.191 2.523-0.194-0.485 0.874 3.98 1.941-0.486 1.068-4.367v-0.098l-1.748-1.65 2.524-3.106-1.165-1.456-3.688-14.268-0.194-0.97-0.486-0.292-0.291-4.27-0.291-4.659-0.291-5.048v-0.291l-0.194 0.097-4.853-15.918-5.145-8.056-1.456-9.61-4.368-10.191-0.582 0.2912-20.286 6.7944-4.077 4.3677-4.562 8.736 0.194 1.941-6.018 9.124 3.689 1.262 1.068 6.891-4.271 5.63-12.813 7.765-2.426-0.971-9.512 1.359-8.833 5.339 0.485 2.815 3.106 2.717-1.747 8.542-6.988 8.153-0.097 0.097z" fill="#15803D" stroke="#052E16" stroke-linejoin="round" stroke-width=".97063"/>
<path d="m900.02 170.13-6.309-2.718-1.068-2.426-5.435-4.174-29.701 8.93-29.508 8.056-5.144-1.262-0.679-2.912-1.65 1.262-2.621 1.844-4.756 4.853-0.583 0.486 2.718 11.939 0.485 2.135 2.427 10.483 0.485 2.038 4.271 18.442 13.783-3.397 1.941-0.485 1.747-0.486 6.892-1.844 37.952-10.58 6.891-2.135 1.65-0.486 0.777-1.941 1.747-1.359h2.329l0.292-0.873 3.785-4.271 0.388-0.68 0.291-0.194-3.785-9.9-1.844-0.291 0.097-6.504-1.747-2.135 4.076-9.027-0.194-0.388z" fill="#15803D" stroke="#052E16" stroke-linejoin="round" stroke-width=".97063"/>
<path d="m946.8 118.4h-0.097l0.194 0.097-0.097-0.097zm7.182-20.674-0.776-1.1648v0.5824l0.776 0.5824zm-1.359-1.0677v-0.9706l-0.097-0.5824 0.097 1.553zm3.495-4.0767-0.194-0.097 0.097 0.2912 0.097-0.1942zm9.706-4.8531-0.194-1.456-0.388 0.6795 0.582 0.7765zm-2.427 0.5824 0.098-1.0677-1.165 0.1941 1.067 0.8736zm3.592-3.2031h-0.389v0.1941l0.389-0.1941zm-4.853 1.4559-0.874-0.1941-0.097 0.8736 0.971-0.6795zm4.95-3.0089 0.873 0.6794-0.291-0.7765-0.582 0.0971zm-2.621 0.097-0.874 1.6501 1.165-0.5824-0.291-1.0677zm-4.174 0.0971-0.388 0.5824 0.291 0.8735 0.097-1.4559zm5.727-3.2031-0.097-0.7765-0.291 0.4853 0.388 0.2912zm-0.485 0.3883-0.874-0.7766v0.6795l0.874 0.0971zm-5.436 2.2324-0.194-1.0677-0.388 0.8736 0.582 0.1941zm9.221-3.3972-1.456 2.1354-0.097-1.553 1.553-0.5824zm7.086-6.5032-0.68-0.9707-0.388 0.1942 1.068 0.7765zm2.621-4.3679-0.583-0.2912-0.097 0.2912h0.68zm1.261-7.5709h-0.873l0.97 0.2912-0.097-0.2912zm1.456 0.9706-0.291-1.7471-0.776-0.0971 1.067 1.8442zm-1.553-1.553-0.194-1.8442-0.679 1.2618 0.873 0.5824zm-56.296 15.239 14.074 33.001 0.194 0.68 6.115 7.473v-0.097l0.971-0.291 0.194-5.532 1.553-1.942 0.97-5.144-0.873-0.874 1.65-5.0469 5.63-2.6207 3.688-4.4649 1.359-7.765 5.921-0.3883-0.777-3.9796 7.377-2.8148 0.485-4.3678 1.747 0.3882 4.854-3.9796 2.135-5.1443-4.95-4.9502-5.242-1.0677-1.941-3.9796v-2.3295l-3.203 0.9706-3.591-1.2618v-3.9796l-9.707-20.966-7.085-3.6884-7.862 6.6003-2.136-0.3883-1.844-3.3972-2.524 0.9706-3.591 17.86 1.262 5.8238 1.068 11.842-2.815 9.124 1.941 1.4559-2.33 4.4649-2.523-0.3882-0.194 0.1941z" fill="#15803D" stroke="#052E16" stroke-linejoin="round" stroke-width=".97063"/>
<path d="m719.96 138.2-0.485-0.776-0.097 0.97 0.582-0.194zm1.553-1.747-1.165-1.553-0.194 0.679 1.359 0.874zm0.971-6.988-0.971-0.874v0.194l0.971 0.68zm-2.427 76 12.036-1.941 3.397-0.68 14.851-2.62 0.291 1.261 0.971-0.291 6.406-1.359 6.115-1.456 6.212-1.553-0.097-0.291 3.203-6.309-0.291-5.241 3.591-9.027 2.815 1.65 1.068-2.038-0.292-7.766-2.62-4.853-3.883-10.288-3.397-3.786-1.747-0.485-6.309 4.368 0.679 0.873-3.3 6.212-3.203-0.582-0.971-6.503 1.359-0.486 2.815-6.503 0.291-11.453-4.368-9.707-9.706-1.65-0.971-1.456-9.027-2.62-4.076 5.047 0.388 4.368-3.106 3.882 0.68 6.018-3.009 2.136v-7.571l-2.718 5.726-3.203 5.048-2.136 1.65 1.068 5.338-1.359 5.533 0.777 6.891-0.971 3.398 6.989 13.394 0.873 5.145-0.873 9.512-4.659 10.677-0.583 0.388zm20.772-87.454-2.524 0.194 1.553 1.165 0.971-1.359zm-14.754 2.524h-0.776l0.873 0.388-0.097-0.388zm16.986-12.327-0.97-1.553-0.389 0.097 1.359 1.456zm-87.939 7.085 3.106 1.747 15.918 4.854 7.377 1.941 7.183 0.485 5.241 4.271v6.6l4.659 4.659v-0.097l3.786-10.968 4.562-3.203 3.494-3.883 0.582 3.495 3.592-5.533 8.638-3.3 0.68-1.359 8.735 1.068 3.398 1.747 1.65-4.271 1.553 0.971 6.794-1.068-1.65-2.718-3.009-1.747 0.582-6.309-5.92 3.3-5.436-0.679-1.747-4.174 0.582-1.3588-7.377 3.4938-4.756 0.292-8.541 5.241-0.971 1.941-5.241-1.262-3.3 1.456-6.601-5.726-14.656-4.465-0.291-1.7473-9.415 9.0273-5.339 1.358-7.571 5.727-0.291 0.194zm34.36-22.033-11.356 5.6296 3.785 3.6884 1.456-3.6884 3.883-4.756 2.232-0.8736zm-12.715-13.298-7.765 5.3385-0.388 2.6207 6.115-4.4649 2.038-3.4943z" fill="#15803D" stroke="#052E16" stroke-linejoin="round" stroke-width=".97063"/>
<rect x="209" y="336" width="8" height="8" fill="#B91C1C">
    <title>UCLA</title>
</rect>
<rect x="191" y="325" width="8" height="8" fill="#B91C1C"/>
<rect x="168" y="253" width="8" height="8" fill="#B91C1C"/>
<rect x="335" y="227" width="8" height="8" fill="#B91C1C"/>
</svg>
