<svg width="747" height="86" viewBox="0 0 747 86" fill="none" xmlns="http://www.w3.org/2000/svg">
<path d="M11.232 38C11.36 38 11.456 38 11.52 38C11.648 37.936 11.776 37.904 11.904 37.904C12.032 37.904 12.16 37.936 12.288 38C12.416 37.808 12.544 37.616 12.672 37.424C12.864 37.168 13.056 36.88 13.248 36.56C14.72 33.872 15.904 29.744 16.8 24.176C17.76 18.608 17.984 11.824 17.472 3.824C17.408 2.928 17.664 2.192 18.24 1.616C18.816 0.975996 19.552 0.623995 20.448 0.559996C21.344 0.495996 22.08 0.751997 22.656 1.328C23.296 1.904 23.648 2.608 23.712 3.44C24.224 12.08 23.936 19.504 22.848 25.712C21.76 31.92 20.352 36.56 18.624 39.632C17.6 41.424 16.384 42.768 14.976 43.664V71.696C14.976 72.592 14.656 73.328 14.016 73.904C13.44 74.48 12.736 74.768 11.904 74.768C11.008 74.768 10.24 74.48 9.6 73.904C9.024 73.328 8.736 72.592 8.736 71.696V43.952C7.648 43.312 6.56 42.192 5.472 40.592C3.936 38.096 2.624 33.968 1.536 28.208C0.512 22.448 0 14.8 0 5.264C0 4.368 0.288 3.632 0.864 3.056C1.504 2.48 2.272 2.192 3.168 2.192C4 2.192 4.704 2.48 5.28 3.056C5.92 3.632 6.24 4.368 6.24 5.264C6.24 14.16 6.656 21.2 7.488 26.384C8.384 31.568 9.472 35.216 10.752 37.328C10.88 37.456 10.976 37.584 11.04 37.712C11.104 37.776 11.168 37.872 11.232 38ZM35.1315 34.736C35.4515 35.184 35.6755 35.728 35.8035 36.368C35.9315 36.432 36.0595 36.496 36.1875 36.56C36.3795 36.624 36.5395 36.688 36.6675 36.752C37.3715 37.072 38.0755 37.296 38.7795 37.424C39.5475 37.552 40.3475 37.68 41.1795 37.808C42.1395 37.936 43.0355 38.032 43.8675 38.096C44.6995 38.16 45.3715 38.192 45.8835 38.192C45.7555 37.168 45.6275 36.432 45.4995 35.984C45.3075 35.28 44.9875 34.672 44.5395 34.16C44.0915 33.648 43.6115 33.2 43.0995 32.816C42.0115 32.176 40.9555 31.856 39.9315 31.856C38.7155 31.856 37.7235 32.112 36.9555 32.624C36.1235 33.008 35.5155 33.712 35.1315 34.736ZM32.7315 41.744L32.5395 41.936C32.5395 42 32.5075 42.064 32.4435 42.128C31.7395 43.6 31.1955 45.264 30.8115 47.12C30.4275 48.912 30.2675 50.768 30.3315 52.688C30.3955 54.544 30.6515 56.336 31.0995 58.064C31.6115 59.792 32.4115 61.296 33.4995 62.576C34.2675 63.536 35.2275 64.304 36.3795 64.88C36.8915 65.136 37.3715 65.264 37.8195 65.264C38.3315 65.2 38.8755 64.912 39.4515 64.4C40.0275 63.888 40.5715 63.184 41.0835 62.288C42.4915 60.048 43.5795 57.168 44.3475 53.648C44.7315 52.048 45.0515 50.448 45.3075 48.848C45.5635 47.184 45.7555 45.584 45.8835 44.048C44.0275 44.24 42.2035 44.208 40.4115 43.952C38.1715 43.76 36.1555 43.28 34.3635 42.512C33.8515 42.32 33.3075 42.064 32.7315 41.744ZM26.9715 39.152C27.2915 38.64 27.5795 38.16 27.8355 37.712C28.1555 37.2 28.4755 36.72 28.7955 36.272C28.6035 35.312 28.6995 34.256 29.0835 33.104C29.5315 31.824 30.1395 30.704 30.9075 29.744C31.7395 28.784 32.6675 27.952 33.6915 27.248C34.6515 26.672 35.6755 26.256 36.7635 26C37.9155 25.744 39.0355 25.648 40.1235 25.712C42.3635 25.712 44.4755 26.352 46.4595 27.632C47.5475 28.336 48.5395 29.264 49.4355 30.416C50.3315 31.504 51.0035 32.784 51.4515 34.256C51.6435 34.96 51.8035 35.76 51.9315 36.656C52.0595 37.552 52.1235 38.544 52.1235 39.632C52.3155 40.08 52.3475 40.56 52.2195 41.072C52.1555 43.184 51.9635 45.488 51.6435 47.984C51.3875 50.416 50.9715 52.816 50.3955 55.184C49.8835 57.104 49.3075 58.96 48.6675 60.752C48.0275 62.544 47.2595 64.144 46.3635 65.552C45.2755 67.216 44.0595 68.592 42.7155 69.68C41.3715 70.704 39.8675 71.28 38.2035 71.408C36.7315 71.536 35.1955 71.216 33.5955 70.448C32.6355 69.936 31.7715 69.36 31.0035 68.72C30.2355 68.08 29.4995 67.376 28.7955 66.608C27.1955 64.752 26.0435 62.64 25.3395 60.272C24.6355 57.84 24.2515 55.344 24.1875 52.784C24.1235 50.352 24.3155 47.984 24.7635 45.68C25.2755 43.376 25.9795 41.296 26.8755 39.44C26.9395 39.376 26.9715 39.28 26.9715 39.152ZM58.3935 32.912C58.6495 32.08 59.1295 31.44 59.8335 30.992C60.5375 30.544 61.3375 30.448 62.2335 30.704C63.0655 30.96 63.6735 31.44 64.0575 32.144C64.5055 32.848 64.6335 33.616 64.4415 34.448C64.4415 34.448 64.2495 35.152 63.8655 36.56C63.5455 37.904 63.1295 39.632 62.6175 41.744C62.1695 43.856 61.7535 46.16 61.3695 48.656C60.9855 51.152 60.6975 53.52 60.5055 55.76C60.3775 57.936 60.4415 59.856 60.6975 61.52C61.0175 63.184 61.6575 64.24 62.6175 64.688C62.7455 64.752 62.8735 64.816 63.0015 64.88C63.1295 64.88 63.2575 64.912 63.3855 64.976C64.2815 65.168 65.2415 65.04 66.2655 64.592C67.3535 64.144 68.4415 63.44 69.5295 62.48C70.8095 61.328 72.0255 59.888 73.1775 58.16C74.3935 56.432 75.4815 54.512 76.4415 52.4C77.0175 51.12 77.5615 49.808 78.0735 48.464C78.5855 47.056 79.0015 45.616 79.3215 44.144C79.2575 42.224 79.2255 40.432 79.2255 38.768C79.2255 37.104 79.2255 35.632 79.2255 34.352V30.224C79.2255 29.328 79.5135 28.592 80.0895 28.016C80.6655 27.44 81.4015 27.152 82.2975 27.152C83.1935 27.152 83.9295 27.44 84.5055 28.016C85.0815 28.592 85.3695 29.328 85.3695 30.224C85.3695 30.224 85.3695 30.608 85.3695 31.376C85.3695 32.144 85.3695 33.168 85.3695 34.448C85.3695 35.664 85.3695 37.104 85.3695 38.768C85.4335 40.432 85.4655 42.192 85.4655 44.048C85.5295 44.432 85.5295 44.784 85.4655 45.104C85.5295 47.6 85.5935 50.16 85.6575 52.784C85.7215 55.344 85.8175 57.712 85.9455 59.888C86.1375 62.064 86.3295 63.92 86.5215 65.456C86.7135 66.992 86.9695 67.952 87.2895 68.336C87.8015 69.04 87.9935 69.808 87.8655 70.64C87.7375 71.472 87.3215 72.144 86.6175 72.656C85.9135 73.168 85.1455 73.36 84.3135 73.232C83.4815 73.104 82.8095 72.688 82.2975 71.984C81.7215 71.216 81.2415 69.648 80.8575 67.28C80.5375 64.912 80.2495 62.16 79.9935 59.024C78.2015 62.224 76.0895 64.944 73.6575 67.184C71.8015 68.848 69.8815 70.032 67.8975 70.736C65.9135 71.44 63.8975 71.536 61.8495 71.024C61.5295 70.896 61.2095 70.8 60.8895 70.736C60.6335 70.608 60.3455 70.48 60.0255 70.352C58.2975 69.584 57.0495 68.112 56.2815 65.936C55.5135 63.76 55.0655 61.296 54.9375 58.544C54.8095 55.792 54.9055 52.912 55.2255 49.904C55.6095 46.896 56.0255 44.144 56.4735 41.648C56.9215 39.088 57.3375 37.008 57.7215 35.408C58.1695 33.744 58.3935 32.912 58.3935 32.912ZM120.352 6.608C120.544 5.776 120.992 5.168 121.696 4.784C122.464 4.336 123.264 4.208 124.096 4.4C124.928 4.656 125.568 5.168 126.016 5.936C126.464 6.64 126.56 7.408 126.304 8.23999C124.832 13.552 123.552 19.024 122.464 24.656C121.376 30.288 120.576 35.92 120.064 41.552C119.744 45.072 119.552 48.496 119.488 51.824C120.576 48.752 121.824 45.712 123.232 42.704C124.64 39.696 126.176 37.072 127.84 34.832C129.568 32.592 131.424 30.96 133.408 29.936C135.456 28.912 137.6 28.848 139.84 29.744C142.208 30.704 144.096 32.432 145.504 34.928C146.976 37.424 148.064 40.272 148.768 43.472C149.536 46.608 150.016 49.904 150.208 53.36C150.464 56.816 150.56 59.984 150.496 62.864C150.496 65.68 150.4 68.016 150.208 69.872C150.08 71.728 150.016 72.656 150.016 72.656C149.888 73.552 149.504 74.256 148.864 74.768C148.224 75.344 147.456 75.568 146.56 75.44C145.664 75.312 144.928 74.928 144.352 74.288C143.84 73.648 143.648 72.88 143.776 71.984C143.776 71.984 143.84 71.184 143.968 69.584C144.16 67.92 144.288 65.872 144.352 63.44C144.416 60.944 144.416 58.224 144.352 55.28C144.288 52.272 144 49.424 143.488 46.736C143.04 44.048 142.336 41.68 141.376 39.632C140.48 37.584 139.2 36.208 137.536 35.504C136.064 34.928 134.624 35.376 133.216 36.848C131.872 38.32 130.56 40.368 129.28 42.992C128.064 45.552 126.912 48.432 125.824 51.632C124.8 54.768 123.904 57.744 123.136 60.56C122.368 63.312 121.76 65.648 121.312 67.568C120.928 69.424 120.736 70.352 120.736 70.352C120.608 70.928 120.32 71.44 119.872 71.888C119.424 72.336 118.848 72.624 118.144 72.752C117.312 72.88 116.544 72.72 115.84 72.272C115.136 71.76 114.72 71.056 114.592 70.16C113.824 65.68 113.408 60.976 113.344 56.048C113.216 51.12 113.408 46.096 113.92 40.976C114.432 35.152 115.232 29.36 116.32 23.6C117.472 17.776 118.816 12.112 120.352 6.608ZM176.522 28.784C176.522 27.888 176.81 27.152 177.386 26.576C177.962 26 178.698 25.68 179.594 25.616C180.49 25.616 181.226 25.904 181.802 26.48C182.378 27.056 182.698 27.792 182.762 28.688V29.456V33.584L183.338 75.344C183.338 76.24 183.05 76.976 182.474 77.552C181.898 78.192 181.162 78.512 180.266 78.512C179.37 78.512 178.634 78.224 178.058 77.648C177.482 77.072 177.162 76.336 177.098 75.44L177.002 64.208C175.914 66.128 174.634 67.728 173.162 69.008C171.69 70.288 169.962 71.088 167.978 71.408C165.482 71.856 163.274 71.536 161.354 70.448C159.498 69.36 157.93 67.76 156.65 65.648C155.882 64.432 155.242 63.12 154.73 61.712C154.218 60.24 153.802 58.672 153.482 57.008C152.906 53.68 152.746 50.448 153.002 47.312C153.13 45.264 153.45 43.28 153.962 41.36C154.474 39.376 155.146 37.584 155.978 35.984C156.81 34.384 157.834 33.008 159.05 31.856C160.266 30.704 161.642 29.872 163.178 29.36C166.25 28.336 168.874 28.144 171.05 28.784C173.226 29.424 175.05 30.48 176.522 31.952V29.744V29.552V28.784ZM176.234 43.664C176.042 43.024 175.722 42.128 175.274 40.976C174.826 39.76 174.154 38.64 173.258 37.616C172.362 36.528 171.242 35.728 169.898 35.216C168.618 34.64 167.018 34.64 165.098 35.216C163.306 35.792 161.93 37.264 160.97 39.632C160.01 42 159.402 44.688 159.146 47.696C158.954 50.384 159.114 53.104 159.626 55.856C159.882 57.136 160.202 58.32 160.586 59.408C160.97 60.496 161.418 61.488 161.93 62.384C162.57 63.408 163.306 64.208 164.138 64.784C164.97 65.296 165.93 65.488 167.018 65.36C168.554 65.104 169.866 64.272 170.954 62.864C172.042 61.456 172.938 59.728 173.642 57.68C174.346 55.632 174.89 53.392 175.274 50.96C175.722 48.464 176.042 46.032 176.234 43.664ZM185.812 32.528C185.748 31.632 186.005 30.896 186.581 30.32C187.157 29.68 187.893 29.36 188.789 29.36C189.685 29.296 190.421 29.584 190.997 30.224C191.637 30.8 191.957 31.504 191.957 32.336C191.957 32.336 191.989 33.168 192.053 34.832C192.117 36.496 192.245 38.608 192.437 41.168C192.693 43.664 193.013 46.384 193.397 49.328C193.781 52.208 194.293 54.928 194.933 57.488C195.573 60.048 196.373 62.192 197.333 63.92C198.293 65.648 199.445 66.576 200.789 66.704C201.109 66.704 201.685 66 202.517 64.592C203.413 63.12 204.405 61.264 205.493 59.024C206.197 57.552 206.869 56.048 207.509 54.512C208.149 52.976 208.757 51.376 209.333 49.712C208.629 48.816 208.021 47.888 207.509 46.928C206.421 45.072 205.557 42.992 204.917 40.688C204.341 38.32 204.405 35.952 205.109 33.584C205.173 33.456 205.205 33.392 205.205 33.392V33.2H205.301C205.877 31.28 206.709 29.744 207.797 28.592C208.949 27.44 210.133 26.64 211.349 26.192C212.629 25.68 213.845 25.584 214.997 25.904C216.213 26.16 217.301 26.832 218.261 27.92C219.029 28.88 219.573 30.128 219.893 31.664C220.213 33.136 220.149 34.928 219.701 37.04C219.381 38.448 218.933 40.144 218.357 42.128C217.845 44.048 217.205 46.128 216.437 48.368C216.693 48.496 216.821 48.56 216.821 48.56C217.077 48.688 217.205 48.752 217.205 48.752C217.909 49.072 218.421 49.584 218.741 50.288C219.125 50.992 219.189 51.728 218.933 52.496C218.677 53.264 218.197 53.84 217.493 54.224C216.853 54.608 216.149 54.736 215.381 54.608C215.253 54.608 215.157 54.608 215.093 54.608C215.093 54.544 215.061 54.512 214.997 54.512C214.805 54.448 214.581 54.352 214.325 54.224C213.813 55.504 213.269 56.784 212.693 58.064C212.181 59.344 211.637 60.56 211.061 61.712C209.397 65.04 207.637 67.792 205.781 69.968C203.989 72.08 202.133 73.04 200.213 72.848C197.973 72.656 196.053 71.536 194.453 69.488C192.917 67.376 191.605 64.848 190.517 61.904C189.429 58.896 188.565 55.696 187.925 52.304C187.349 48.848 186.901 45.68 186.581 42.8C186.261 39.856 186.037 37.424 185.909 35.504C185.845 33.52 185.812 32.528 185.812 32.528ZM211.925 42.128C212.309 40.848 212.629 39.696 212.885 38.672C213.205 37.584 213.461 36.624 213.653 35.792C213.845 34.704 213.909 33.872 213.845 33.296C213.845 32.72 213.749 32.272 213.557 31.952C213.493 31.952 213.429 31.984 213.365 32.048C212.981 32.176 212.597 32.496 212.213 33.008C211.829 33.52 211.477 34.224 211.156 35.12V35.216C211.156 35.28 211.125 35.312 211.061 35.312C211.061 35.312 211.061 35.344 211.061 35.408C210.741 36.496 210.677 37.616 210.869 38.768C211.061 39.92 211.413 41.04 211.925 42.128ZM228.521 50.96C231.913 48.912 234.345 46.8 235.817 44.624C237.353 42.384 238.185 40.336 238.313 38.48C238.441 37.264 238.345 36.272 238.025 35.504C237.769 34.8 237.417 34.224 236.969 33.776C236.329 33.2 235.689 33.104 235.049 33.488C233.641 34.192 232.457 35.312 231.497 36.848C230.601 38.384 229.897 40.176 229.385 42.224C228.681 44.912 228.393 47.824 228.521 50.96ZM244.553 38.96C244.297 41.904 243.017 45.072 240.713 48.464C238.409 51.792 234.601 54.864 229.289 57.68C229.289 57.808 229.289 57.936 229.289 58.064C229.353 58.192 229.385 58.32 229.385 58.448C229.769 60.112 230.345 61.584 231.113 62.864C231.881 64.08 232.713 65.072 233.609 65.84C234.441 66.544 235.305 66.928 236.201 66.992C236.969 67.12 237.641 66.96 238.217 66.512C239.561 65.616 240.681 63.792 241.577 61.04C241.833 60.208 242.313 59.6 243.017 59.216C243.785 58.832 244.585 58.768 245.417 59.024C246.249 59.344 246.857 59.888 247.241 60.656C247.689 61.36 247.753 62.128 247.433 62.96C246.729 65.072 245.897 66.864 244.937 68.336C243.977 69.744 242.921 70.832 241.769 71.6C239.849 73.008 237.737 73.552 235.433 73.232C233.321 72.912 231.401 72.048 229.673 70.64C228.201 69.424 226.889 67.888 225.737 66.032C224.649 64.176 223.849 62.096 223.337 59.792C222.633 56.656 222.281 53.424 222.281 50.096C222.281 46.768 222.633 43.632 223.337 40.688C224.041 37.808 225.129 35.248 226.601 33.008C228.073 30.768 229.929 29.072 232.169 27.92C233.833 27.088 235.433 26.832 236.969 27.152C238.505 27.408 239.881 28.08 241.097 29.168C242.377 30.256 243.305 31.696 243.881 33.488C244.521 35.28 244.745 37.104 244.553 38.96ZM275.36 30.032C275.424 29.136 275.776 28.432 276.416 27.92C277.056 27.344 277.792 27.088 278.624 27.152C279.52 27.216 280.256 27.568 280.832 28.208C281.408 28.784 281.664 29.52 281.6 30.416C281.6 30.48 281.536 31.44 281.408 33.296C281.28 35.152 281.152 37.52 281.023 40.4C282.496 37.712 284.032 35.568 285.632 33.968C287.232 32.368 288.8 31.152 290.336 30.32C292.704 29.168 295.008 28.752 297.248 29.072C299.424 29.392 301.28 30.288 302.816 31.76C303.968 32.912 304.736 34.288 305.12 35.888C305.504 37.488 305.344 39.152 304.64 40.88C304.32 41.648 303.744 42.224 302.911 42.608C302.144 42.928 301.376 42.928 300.608 42.608C299.776 42.288 299.2 41.744 298.88 40.976C298.56 40.144 298.56 39.344 298.88 38.576C299.136 37.616 298.976 36.784 298.4 36.08C298.144 35.888 297.856 35.728 297.536 35.6C297.216 35.408 296.864 35.28 296.48 35.216C295.456 35.088 294.336 35.312 293.12 35.888C290.944 36.976 288.736 39.408 286.496 43.184C284.256 46.96 282.432 52.656 281.023 60.272C281.152 62.512 281.344 64.496 281.6 66.224C281.856 67.952 282.24 69.2 282.752 69.968C283.2 70.672 283.328 71.44 283.136 72.272C282.944 73.104 282.496 73.776 281.792 74.288C281.024 74.736 280.224 74.832 279.392 74.576C278.56 74.384 277.92 73.936 277.472 73.232C276.768 72.144 276.192 70.48 275.744 68.24C275.36 66 275.104 63.44 274.976 60.56C274.784 60.24 274.752 59.792 274.88 59.216C274.688 56.016 274.623 52.688 274.688 49.232C274.688 45.776 274.72 42.64 274.784 39.824C274.912 37.008 275.04 34.672 275.168 32.816C275.296 30.96 275.36 30.032 275.36 30.032ZM313.365 50.96C316.757 48.912 319.189 46.8 320.661 44.624C322.197 42.384 323.029 40.336 323.157 38.48C323.285 37.264 323.189 36.272 322.869 35.504C322.613 34.8 322.261 34.224 321.813 33.776C321.173 33.2 320.533 33.104 319.893 33.488C318.485 34.192 317.301 35.312 316.341 36.848C315.445 38.384 314.741 40.176 314.229 42.224C313.525 44.912 313.237 47.824 313.365 50.96ZM329.397 38.96C329.141 41.904 327.861 45.072 325.557 48.464C323.253 51.792 319.445 54.864 314.133 57.68C314.133 57.808 314.133 57.936 314.133 58.064C314.197 58.192 314.229 58.32 314.229 58.448C314.613 60.112 315.189 61.584 315.957 62.864C316.725 64.08 317.557 65.072 318.453 65.84C319.285 66.544 320.149 66.928 321.045 66.992C321.813 67.12 322.485 66.96 323.061 66.512C324.405 65.616 325.525 63.792 326.421 61.04C326.677 60.208 327.157 59.6 327.861 59.216C328.629 58.832 329.429 58.768 330.261 59.024C331.093 59.344 331.701 59.888 332.085 60.656C332.533 61.36 332.597 62.128 332.277 62.96C331.573 65.072 330.741 66.864 329.781 68.336C328.821 69.744 327.765 70.832 326.613 71.6C324.693 73.008 322.581 73.552 320.277 73.232C318.165 72.912 316.245 72.048 314.517 70.64C313.045 69.424 311.733 67.888 310.581 66.032C309.493 64.176 308.693 62.096 308.181 59.792C307.477 56.656 307.125 53.424 307.125 50.096C307.125 46.768 307.477 43.632 308.181 40.688C308.885 37.808 309.973 35.248 311.445 33.008C312.917 30.768 314.773 29.072 317.013 27.92C318.677 27.088 320.277 26.832 321.813 27.152C323.349 27.408 324.725 28.08 325.941 29.168C327.221 30.256 328.149 31.696 328.725 33.488C329.365 35.28 329.589 37.104 329.397 38.96ZM358.397 28.784C358.397 27.888 358.685 27.152 359.261 26.576C359.837 26 360.573 25.68 361.469 25.616C362.365 25.616 363.101 25.904 363.677 26.48C364.253 27.056 364.573 27.792 364.637 28.688V29.456V33.584L365.213 75.344C365.213 76.24 364.925 76.976 364.349 77.552C363.773 78.192 363.037 78.512 362.141 78.512C361.245 78.512 360.509 78.224 359.933 77.648C359.357 77.072 359.037 76.336 358.973 75.44L358.877 64.208C357.789 66.128 356.509 67.728 355.037 69.008C353.565 70.288 351.837 71.088 349.853 71.408C347.357 71.856 345.149 71.536 343.229 70.448C341.373 69.36 339.805 67.76 338.525 65.648C337.757 64.432 337.117 63.12 336.605 61.712C336.093 60.24 335.677 58.672 335.357 57.008C334.781 53.68 334.621 50.448 334.877 47.312C335.005 45.264 335.325 43.28 335.837 41.36C336.349 39.376 337.021 37.584 337.853 35.984C338.685 34.384 339.709 33.008 340.925 31.856C342.141 30.704 343.517 29.872 345.053 29.36C348.125 28.336 350.749 28.144 352.925 28.784C355.101 29.424 356.925 30.48 358.397 31.952V29.744V29.552V28.784ZM358.109 43.664C357.917 43.024 357.597 42.128 357.149 40.976C356.701 39.76 356.029 38.64 355.133 37.616C354.237 36.528 353.117 35.728 351.773 35.216C350.493 34.64 348.893 34.64 346.973 35.216C345.181 35.792 343.805 37.264 342.845 39.632C341.885 42 341.277 44.688 341.021 47.696C340.829 50.384 340.989 53.104 341.501 55.856C341.757 57.136 342.077 58.32 342.461 59.408C342.845 60.496 343.293 61.488 343.805 62.384C344.445 63.408 345.181 64.208 346.013 64.784C346.845 65.296 347.805 65.488 348.893 65.36C350.429 65.104 351.741 64.272 352.829 62.864C353.917 61.456 354.813 59.728 355.517 57.68C356.221 55.632 356.765 53.392 357.149 50.96C357.597 48.464 357.917 46.032 358.109 43.664ZM393.128 41.36C393.192 42.256 392.904 42.992 392.264 43.568C391.688 44.144 390.984 44.464 390.152 44.528C389.256 44.528 388.488 44.24 387.848 43.664C387.272 43.088 386.952 42.352 386.888 41.456C386.76 40.048 386.536 38.8 386.216 37.712C385.896 36.816 385.416 36.016 384.776 35.312C384.136 34.544 383.208 34.256 381.992 34.448C380.712 34.576 379.592 35.248 378.632 36.464C377.672 37.68 376.84 39.216 376.136 41.072C375.112 43.632 374.44 46.416 374.12 49.424C373.8 52.432 373.8 55.184 374.12 57.68C374.312 59.344 374.696 60.976 375.272 62.576C375.912 64.112 376.68 65.456 377.576 66.608C378.472 67.76 379.4 68.592 380.359 69.104H380.552C381.256 69.424 381.96 69.392 382.664 69.008C383.88 68.496 385 67.44 386.024 65.84C386.536 65.136 387.208 64.688 388.04 64.496C388.872 64.304 389.64 64.464 390.344 64.976C391.048 65.488 391.464 66.16 391.592 66.992C391.784 67.824 391.624 68.592 391.112 69.296C389.384 71.984 387.432 73.776 385.256 74.672C384.04 75.248 382.824 75.536 381.608 75.536C380.456 75.536 379.336 75.344 378.248 74.96C378.184 74.896 378.12 74.864 378.056 74.864C378.056 74.864 378.024 74.832 377.96 74.768C376.936 74.384 375.976 73.808 375.08 73.04C374.184 72.272 373.352 71.376 372.584 70.352C371.368 68.752 370.344 66.928 369.512 64.88C368.744 62.768 368.232 60.624 367.976 58.448C367.591 55.44 367.591 52.176 367.976 48.656C368.36 45.136 369.128 41.84 370.28 38.768C371.368 35.952 372.808 33.584 374.6 31.664C376.392 29.744 378.568 28.592 381.128 28.208C383.048 27.952 384.68 28.08 386.024 28.592C387.432 29.104 388.584 29.84 389.48 30.8C390.376 31.76 391.048 32.848 391.496 34.064C392.008 35.28 392.36 36.432 392.552 37.52C392.808 38.608 392.968 39.536 393.031 40.304C393.096 41.008 393.128 41.36 393.128 41.36ZM402.164 6.608C402.356 5.776 402.804 5.168 403.508 4.784C404.276 4.336 405.076 4.208 405.908 4.4C406.74 4.656 407.38 5.168 407.828 5.936C408.276 6.64 408.372 7.408 408.116 8.23999C406.644 13.552 405.364 19.024 404.276 24.656C403.188 30.288 402.388 35.92 401.876 41.552C401.556 45.072 401.364 48.496 401.3 51.824C402.388 48.752 403.636 45.712 405.044 42.704C406.452 39.696 407.988 37.072 409.652 34.832C411.38 32.592 413.236 30.96 415.22 29.936C417.268 28.912 419.412 28.848 421.652 29.744C424.02 30.704 425.908 32.432 427.316 34.928C428.788 37.424 429.876 40.272 430.58 43.472C431.348 46.608 431.828 49.904 432.02 53.36C432.276 56.816 432.372 59.984 432.308 62.864C432.308 65.68 432.212 68.016 432.02 69.872C431.892 71.728 431.828 72.656 431.828 72.656C431.7 73.552 431.316 74.256 430.676 74.768C430.036 75.344 429.268 75.568 428.372 75.44C427.476 75.312 426.74 74.928 426.164 74.288C425.652 73.648 425.46 72.88 425.588 71.984C425.588 71.984 425.652 71.184 425.78 69.584C425.972 67.92 426.1 65.872 426.164 63.44C426.228 60.944 426.228 58.224 426.164 55.28C426.1 52.272 425.812 49.424 425.3 46.736C424.852 44.048 424.148 41.68 423.188 39.632C422.292 37.584 421.012 36.208 419.348 35.504C417.876 34.928 416.436 35.376 415.028 36.848C413.684 38.32 412.372 40.368 411.092 42.992C409.876 45.552 408.724 48.432 407.636 51.632C406.612 54.768 405.716 57.744 404.948 60.56C404.18 63.312 403.572 65.648 403.124 67.568C402.74 69.424 402.548 70.352 402.548 70.352C402.42 70.928 402.132 71.44 401.684 71.888C401.236 72.336 400.66 72.624 399.956 72.752C399.124 72.88 398.356 72.72 397.652 72.272C396.948 71.76 396.532 71.056 396.404 70.16C395.636 65.68 395.22 60.976 395.156 56.048C395.028 51.12 395.22 46.096 395.732 40.976C396.244 35.152 397.044 29.36 398.132 23.6C399.284 17.776 400.628 12.112 402.164 6.608ZM440.959 50.96C444.351 48.912 446.783 46.8 448.255 44.624C449.791 42.384 450.623 40.336 450.751 38.48C450.879 37.264 450.783 36.272 450.463 35.504C450.207 34.8 449.855 34.224 449.407 33.776C448.767 33.2 448.127 33.104 447.487 33.488C446.079 34.192 444.895 35.312 443.935 36.848C443.039 38.384 442.335 40.176 441.823 42.224C441.119 44.912 440.831 47.824 440.959 50.96ZM456.991 38.96C456.735 41.904 455.455 45.072 453.151 48.464C450.847 51.792 447.039 54.864 441.727 57.68C441.727 57.808 441.727 57.936 441.727 58.064C441.791 58.192 441.823 58.32 441.823 58.448C442.207 60.112 442.783 61.584 443.551 62.864C444.319 64.08 445.151 65.072 446.047 65.84C446.879 66.544 447.743 66.928 448.639 66.992C449.407 67.12 450.079 66.96 450.655 66.512C451.999 65.616 453.119 63.792 454.015 61.04C454.271 60.208 454.751 59.6 455.455 59.216C456.223 58.832 457.023 58.768 457.855 59.024C458.687 59.344 459.295 59.888 459.679 60.656C460.127 61.36 460.191 62.128 459.871 62.96C459.167 65.072 458.335 66.864 457.375 68.336C456.415 69.744 455.359 70.832 454.207 71.6C452.287 73.008 450.175 73.552 447.871 73.232C445.759 72.912 443.839 72.048 442.111 70.64C440.639 69.424 439.327 67.888 438.175 66.032C437.087 64.176 436.287 62.096 435.775 59.792C435.071 56.656 434.719 53.424 434.719 50.096C434.719 46.768 435.071 43.632 435.775 40.688C436.479 37.808 437.567 35.248 439.039 33.008C440.511 30.768 442.367 29.072 444.607 27.92C446.271 27.088 447.871 26.832 449.407 27.152C450.943 27.408 452.319 28.08 453.535 29.168C454.815 30.256 455.743 31.696 456.319 33.488C456.959 35.28 457.183 37.104 456.991 38.96ZM491.463 25.328C491.399 27.824 491.335 30.704 491.271 33.968C491.271 37.168 491.271 40.464 491.271 43.856C491.271 47.248 491.271 50.64 491.271 54.032C491.335 57.36 491.399 60.4 491.463 63.152C491.527 65.904 491.623 68.272 491.751 70.256C491.943 72.176 492.167 73.424 492.423 74C492.743 74.768 492.743 75.536 492.423 76.304C492.167 77.136 491.623 77.712 490.791 78.032C490.023 78.352 489.223 78.352 488.391 78.032C487.623 77.712 487.079 77.168 486.759 76.4C486.439 75.696 486.183 74.32 485.991 72.272C485.799 70.16 485.639 67.664 485.511 64.784C484.999 65.872 484.519 66.832 484.071 67.664C483.111 69.328 482.023 70.64 480.807 71.6C479.591 72.496 478.183 72.976 476.583 73.04C476.263 73.04 475.943 73.04 475.623 73.04C475.303 72.976 474.983 72.912 474.663 72.848C472.743 72.336 471.047 71.376 469.575 69.968C468.103 68.496 466.855 66.672 465.831 64.496C464.039 60.848 462.951 56.656 462.567 51.92C462.311 49.68 462.247 47.44 462.375 45.2C462.503 42.96 462.791 40.88 463.239 38.96C463.879 36.464 464.775 34.288 465.927 32.432C467.079 30.512 468.583 29.104 470.439 28.208C472.103 27.44 473.671 26.96 475.143 26.768C476.615 26.512 477.959 26.48 479.175 26.672C480.391 26.8 481.479 27.088 482.439 27.536C483.463 27.984 484.359 28.496 485.127 29.072C485.127 28.368 485.127 27.664 485.127 26.96C485.191 26.192 485.223 25.456 485.223 24.752C485.287 22.512 485.319 20.688 485.319 19.28C485.383 17.872 485.415 17.008 485.415 16.688C485.415 15.152 485.383 13.68 485.319 12.272C485.319 10.8 485.287 9.424 485.223 8.144C485.223 7.248 485.511 6.512 486.087 5.936C486.663 5.296 487.399 4.976 488.295 4.976C489.127 4.912 489.831 5.168 490.407 5.744C491.047 6.32 491.399 7.056 491.463 7.952C491.655 13.072 491.655 18.864 491.463 25.328ZM484.551 37.616C484.103 37.296 483.783 36.944 483.591 36.56C482.887 35.536 482.023 34.672 480.999 33.968C480.103 33.456 479.015 33.104 477.735 32.912C476.455 32.656 474.887 32.976 473.031 33.872C472.135 34.256 471.367 35.024 470.727 36.176C470.151 37.328 469.671 38.704 469.287 40.304C468.519 43.76 468.327 47.472 468.711 51.44C468.903 53.296 469.223 55.152 469.671 57.008C470.119 58.8 470.695 60.432 471.399 61.904C472.039 63.184 472.743 64.272 473.511 65.168C474.279 66 475.143 66.544 476.103 66.8H476.391C477.095 66.8 477.863 66.032 478.695 64.496C479.335 63.408 479.911 62.128 480.423 60.656C480.935 59.184 481.415 57.52 481.863 55.664C482.503 53.04 483.015 50.192 483.399 47.12C483.847 44.048 484.231 40.88 484.551 37.616ZM522.925 34.448C522.029 34.576 521.261 34.384 520.621 33.872C519.981 33.36 519.597 32.656 519.469 31.76C519.341 30.864 519.533 30.096 520.045 29.456C520.557 28.816 521.261 28.432 522.157 28.304C522.477 28.304 522.797 28.272 523.117 28.208C523.629 28.144 524.461 28.048 525.613 27.92C526.189 24.336 526.797 20.976 527.437 17.84C528.077 14.704 528.653 12.016 529.165 9.776C529.357 8.944 529.805 8.304 530.509 7.856C531.277 7.408 532.077 7.28 532.909 7.472C533.741 7.664 534.381 8.112 534.829 8.816C535.277 9.52 535.405 10.288 535.213 11.12C534.701 13.232 534.157 15.664 533.581 18.416C533.069 21.168 532.525 24.144 531.949 27.344C533.293 27.28 534.573 27.248 535.789 27.248C537.005 27.248 538.029 27.312 538.861 27.44C539.757 27.568 540.429 27.984 540.877 28.688C541.389 29.392 541.581 30.192 541.453 31.088C541.325 31.92 540.909 32.592 540.205 33.104C539.501 33.552 538.733 33.712 537.901 33.584C537.133 33.456 536.109 33.392 534.829 33.392C533.613 33.392 532.333 33.456 530.989 33.584C530.477 36.848 530.061 40.08 529.741 43.28C529.485 46.416 529.325 49.456 529.261 52.4C529.261 54.96 529.357 57.328 529.549 59.504C529.805 61.68 530.221 63.536 530.797 65.072C531.693 67.504 532.941 68.752 534.541 68.816C535.245 68.816 536.141 68.624 537.229 68.24C538.061 67.92 538.861 67.952 539.629 68.336C540.397 68.656 540.941 69.232 541.261 70.064C541.581 70.896 541.549 71.696 541.165 72.464C540.845 73.232 540.269 73.776 539.437 74.096C537.581 74.8 535.885 75.088 534.349 74.96C531.981 74.896 530.029 74.192 528.493 72.848C527.021 71.504 525.837 69.616 524.941 67.184C524.237 65.264 523.725 63.056 523.405 60.56C523.149 58 523.053 55.28 523.117 52.4C523.117 49.52 523.245 46.544 523.501 43.472C523.821 40.4 524.205 37.328 524.653 34.256C524.333 34.32 524.077 34.352 523.885 34.352C523.693 34.352 523.533 34.352 523.405 34.352C523.213 34.352 523.053 34.384 522.925 34.448ZM550.664 6.608C550.856 5.776 551.304 5.168 552.008 4.784C552.776 4.336 553.576 4.208 554.408 4.4C555.24 4.656 555.88 5.168 556.328 5.936C556.776 6.64 556.872 7.408 556.616 8.23999C555.144 13.552 553.864 19.024 552.776 24.656C551.688 30.288 550.888 35.92 550.376 41.552C550.056 45.072 549.864 48.496 549.8 51.824C550.888 48.752 552.136 45.712 553.544 42.704C554.952 39.696 556.488 37.072 558.152 34.832C559.88 32.592 561.736 30.96 563.72 29.936C565.768 28.912 567.912 28.848 570.152 29.744C572.52 30.704 574.408 32.432 575.816 34.928C577.288 37.424 578.376 40.272 579.08 43.472C579.848 46.608 580.328 49.904 580.52 53.36C580.776 56.816 580.872 59.984 580.808 62.864C580.808 65.68 580.712 68.016 580.52 69.872C580.392 71.728 580.328 72.656 580.328 72.656C580.2 73.552 579.816 74.256 579.176 74.768C578.536 75.344 577.768 75.568 576.872 75.44C575.976 75.312 575.24 74.928 574.664 74.288C574.152 73.648 573.96 72.88 574.088 71.984C574.088 71.984 574.152 71.184 574.28 69.584C574.472 67.92 574.6 65.872 574.664 63.44C574.728 60.944 574.728 58.224 574.664 55.28C574.6 52.272 574.312 49.424 573.8 46.736C573.352 44.048 572.648 41.68 571.688 39.632C570.792 37.584 569.512 36.208 567.848 35.504C566.376 34.928 564.936 35.376 563.528 36.848C562.184 38.32 560.872 40.368 559.592 42.992C558.376 45.552 557.224 48.432 556.136 51.632C555.112 54.768 554.216 57.744 553.448 60.56C552.68 63.312 552.072 65.648 551.624 67.568C551.24 69.424 551.048 70.352 551.048 70.352C550.92 70.928 550.632 71.44 550.184 71.888C549.736 72.336 549.16 72.624 548.456 72.752C547.624 72.88 546.856 72.72 546.152 72.272C545.448 71.76 545.032 71.056 544.904 70.16C544.136 65.68 543.72 60.976 543.656 56.048C543.528 51.12 543.72 46.096 544.232 40.976C544.744 35.152 545.544 29.36 546.632 23.6C547.784 17.776 549.128 12.112 550.664 6.608ZM589.459 50.96C592.851 48.912 595.283 46.8 596.755 44.624C598.291 42.384 599.123 40.336 599.251 38.48C599.379 37.264 599.283 36.272 598.963 35.504C598.707 34.8 598.355 34.224 597.907 33.776C597.267 33.2 596.627 33.104 595.987 33.488C594.579 34.192 593.395 35.312 592.435 36.848C591.539 38.384 590.835 40.176 590.323 42.224C589.619 44.912 589.331 47.824 589.459 50.96ZM605.491 38.96C605.235 41.904 603.955 45.072 601.651 48.464C599.347 51.792 595.539 54.864 590.227 57.68C590.227 57.808 590.227 57.936 590.227 58.064C590.291 58.192 590.323 58.32 590.323 58.448C590.707 60.112 591.283 61.584 592.051 62.864C592.819 64.08 593.651 65.072 594.547 65.84C595.379 66.544 596.243 66.928 597.139 66.992C597.907 67.12 598.579 66.96 599.155 66.512C600.499 65.616 601.619 63.792 602.515 61.04C602.771 60.208 603.251 59.6 603.955 59.216C604.723 58.832 605.523 58.768 606.355 59.024C607.187 59.344 607.795 59.888 608.179 60.656C608.627 61.36 608.691 62.128 608.371 62.96C607.667 65.072 606.835 66.864 605.875 68.336C604.915 69.744 603.859 70.832 602.707 71.6C600.787 73.008 598.675 73.552 596.371 73.232C594.259 72.912 592.339 72.048 590.611 70.64C589.139 69.424 587.827 67.888 586.675 66.032C585.587 64.176 584.787 62.096 584.275 59.792C583.571 56.656 583.219 53.424 583.219 50.096C583.219 46.768 583.571 43.632 584.275 40.688C584.979 37.808 586.067 35.248 587.539 33.008C589.011 30.768 590.867 29.072 593.107 27.92C594.771 27.088 596.371 26.832 597.907 27.152C599.443 27.408 600.819 28.08 602.035 29.168C603.315 30.256 604.243 31.696 604.819 33.488C605.459 35.28 605.683 37.104 605.491 38.96ZM641.865 50.96C645.257 48.912 647.689 46.8 649.161 44.624C650.697 42.384 651.529 40.336 651.657 38.48C651.785 37.264 651.689 36.272 651.369 35.504C651.113 34.8 650.761 34.224 650.313 33.776C649.673 33.2 649.033 33.104 648.393 33.488C646.985 34.192 645.801 35.312 644.841 36.848C643.945 38.384 643.241 40.176 642.729 42.224C642.025 44.912 641.737 47.824 641.865 50.96ZM657.897 38.96C657.641 41.904 656.361 45.072 654.057 48.464C651.753 51.792 647.945 54.864 642.633 57.68C642.633 57.808 642.633 57.936 642.633 58.064C642.697 58.192 642.729 58.32 642.729 58.448C643.113 60.112 643.689 61.584 644.457 62.864C645.225 64.08 646.057 65.072 646.953 65.84C647.785 66.544 648.649 66.928 649.545 66.992C650.313 67.12 650.985 66.96 651.561 66.512C652.905 65.616 654.025 63.792 654.921 61.04C655.177 60.208 655.657 59.6 656.361 59.216C657.129 58.832 657.929 58.768 658.761 59.024C659.593 59.344 660.201 59.888 660.585 60.656C661.033 61.36 661.097 62.128 660.777 62.96C660.073 65.072 659.241 66.864 658.281 68.336C657.321 69.744 656.265 70.832 655.113 71.6C653.193 73.008 651.081 73.552 648.777 73.232C646.665 72.912 644.745 72.048 643.017 70.64C641.545 69.424 640.233 67.888 639.081 66.032C637.993 64.176 637.193 62.096 636.681 59.792C635.977 56.656 635.625 53.424 635.625 50.096C635.625 46.768 635.977 43.632 636.681 40.688C637.385 37.808 638.473 35.248 639.945 33.008C641.417 30.768 643.273 29.072 645.513 27.92C647.177 27.088 648.777 26.832 650.313 27.152C651.849 27.408 653.225 28.08 654.441 29.168C655.721 30.256 656.649 31.696 657.225 33.488C657.865 35.28 658.089 37.104 657.897 38.96ZM663.281 29.456C663.281 28.56 663.569 27.824 664.145 27.248C664.721 26.672 665.457 26.384 666.353 26.384C667.249 26.384 667.985 26.672 668.561 27.248C669.137 27.824 669.425 28.56 669.425 29.456C669.425 29.456 669.393 30.16 669.329 31.568C669.265 32.912 669.201 34.608 669.137 36.656C669.073 38.704 669.009 40.912 668.945 43.28C668.881 45.648 668.817 47.856 668.753 49.904C668.753 51.888 668.753 53.552 668.753 54.896C668.817 56.24 668.913 56.912 669.041 56.912C669.297 56.848 669.393 57.008 669.329 57.392C669.329 57.712 669.297 57.968 669.233 58.16C669.233 58.352 669.233 58.32 669.233 58.064C669.297 57.808 669.521 57.008 669.905 55.664C670.545 53.296 671.249 50.768 672.017 48.08C672.849 45.392 673.713 42.736 674.609 40.112C675.569 37.488 676.593 35.024 677.681 32.72C678.769 30.352 679.953 28.304 681.233 26.576C682.577 24.848 683.985 23.568 685.457 22.736C686.993 21.84 688.625 21.552 690.353 21.872C692.081 22.192 693.553 23.152 694.769 24.752C696.049 26.352 697.105 28.336 697.937 30.704C698.833 33.008 699.537 35.632 700.049 38.576C700.625 41.456 701.041 44.4 701.297 47.408C701.617 50.352 701.809 53.232 701.873 56.048C702.001 58.864 702.065 61.392 702.065 63.632C702.065 65.808 702.033 67.568 701.969 68.912C701.905 70.256 701.873 70.928 701.873 70.928C701.809 71.76 701.457 72.464 700.817 73.04C700.241 73.616 699.505 73.872 698.609 73.808C697.713 73.808 696.977 73.488 696.401 72.848C695.889 72.208 695.665 71.472 695.729 70.64C695.729 70.64 695.761 70.032 695.825 68.816C695.889 67.6 695.921 66.032 695.921 64.112C695.921 62.192 695.921 59.984 695.921 57.488C695.921 54.992 695.825 52.464 695.633 49.904C695.505 47.28 695.281 44.72 694.961 42.224C694.705 39.664 694.321 37.392 693.809 35.408C693.297 33.36 692.657 31.664 691.889 30.32C691.121 28.976 690.193 28.208 689.105 28.016C687.889 27.76 686.673 28.592 685.457 30.512C684.305 32.368 683.153 34.8 682.001 37.808C680.849 40.752 679.761 43.984 678.737 47.504C677.713 51.024 676.785 54.288 675.953 57.296C674.865 61.008 673.873 64.144 672.977 66.704C672.081 69.2 670.929 70.576 669.521 70.832C668.433 71.024 667.505 70.16 666.737 68.24C666.033 66.256 665.425 63.728 664.913 60.656C664.465 57.584 664.113 54.256 663.857 50.672C663.665 47.024 663.505 43.632 663.377 40.496C663.313 37.36 663.281 34.736 663.281 32.624C663.281 30.512 663.281 29.456 663.281 29.456ZM733.151 25.328C733.087 27.824 733.023 30.704 732.959 33.968C732.959 37.168 732.959 40.464 732.959 43.856C732.959 47.248 732.959 50.64 732.959 54.032C733.023 57.36 733.087 60.4 733.151 63.152C733.215 65.904 733.311 68.272 733.439 70.256C733.631 72.176 733.855 73.424 734.111 74C734.431 74.768 734.431 75.536 734.111 76.304C733.855 77.136 733.311 77.712 732.479 78.032C731.711 78.352 730.911 78.352 730.079 78.032C729.311 77.712 728.767 77.168 728.447 76.4C728.127 75.696 727.871 74.32 727.679 72.272C727.487 70.16 727.327 67.664 727.199 64.784C726.687 65.872 726.207 66.832 725.759 67.664C724.799 69.328 723.711 70.64 722.495 71.6C721.279 72.496 719.871 72.976 718.271 73.04C717.951 73.04 717.631 73.04 717.311 73.04C716.991 72.976 716.671 72.912 716.351 72.848C714.431 72.336 712.735 71.376 711.263 69.968C709.791 68.496 708.543 66.672 707.519 64.496C705.727 60.848 704.639 56.656 704.255 51.92C703.998 49.68 703.934 47.44 704.062 45.2C704.191 42.96 704.479 40.88 704.927 38.96C705.567 36.464 706.463 34.288 707.615 32.432C708.767 30.512 710.271 29.104 712.127 28.208C713.791 27.44 715.359 26.96 716.831 26.768C718.303 26.512 719.647 26.48 720.863 26.672C722.079 26.8 723.167 27.088 724.127 27.536C725.151 27.984 726.047 28.496 726.815 29.072C726.815 28.368 726.815 27.664 726.815 26.96C726.879 26.192 726.911 25.456 726.911 24.752C726.975 22.512 727.007 20.688 727.007 19.28C727.071 17.872 727.103 17.008 727.103 16.688C727.103 15.152 727.071 13.68 727.007 12.272C727.007 10.8 726.975 9.424 726.911 8.144C726.911 7.248 727.199 6.512 727.775 5.936C728.351 5.296 729.087 4.976 729.983 4.976C730.815 4.912 731.519 5.168 732.095 5.744C732.735 6.32 733.087 7.056 733.151 7.952C733.343 13.072 733.343 18.864 733.151 25.328ZM726.239 37.616C725.791 37.296 725.471 36.944 725.279 36.56C724.575 35.536 723.711 34.672 722.687 33.968C721.791 33.456 720.703 33.104 719.423 32.912C718.143 32.656 716.575 32.976 714.719 33.872C713.823 34.256 713.055 35.024 712.415 36.176C711.839 37.328 711.359 38.704 710.975 40.304C710.207 43.76 710.015 47.472 710.398 51.44C710.591 53.296 710.911 55.152 711.359 57.008C711.807 58.8 712.383 60.432 713.087 61.904C713.727 63.184 714.431 64.272 715.199 65.168C715.967 66 716.831 66.544 717.791 66.8H718.079C718.783 66.8 719.551 66.032 720.383 64.496C721.023 63.408 721.599 62.128 722.111 60.656C722.623 59.184 723.103 57.52 723.551 55.664C724.191 53.04 724.703 50.192 725.087 47.12C725.535 44.048 725.919 40.88 726.239 37.616ZM737.078 6.41599C737.142 5.584 737.462 4.88 738.038 4.304C738.678 3.728 739.446 3.44 740.342 3.44C741.238 3.504 741.942 3.856 742.454 4.496C743.03 5.072 743.318 5.808 743.318 6.704C743.318 6.704 743.286 7.504 743.222 9.10399C743.158 10.704 743.094 12.848 743.03 15.536C742.966 18.16 742.902 21.2 742.838 24.656C742.774 28.112 742.71 31.728 742.646 35.504C742.582 39.216 742.55 42.96 742.55 46.736C742.614 50.448 742.678 53.936 742.742 57.2C742.87 60.4 743.03 63.248 743.222 65.744C743.414 68.24 743.67 70.064 743.99 71.216C744.246 72.048 744.15 72.848 743.702 73.616C743.318 74.32 742.71 74.8 741.878 75.056C741.046 75.312 740.246 75.216 739.478 74.768C738.774 74.384 738.294 73.776 738.038 72.944C737.654 71.664 737.334 69.744 737.078 67.184C736.886 64.56 736.726 61.584 736.598 58.256C736.534 54.864 736.47 51.248 736.406 47.408C736.406 43.568 736.406 39.728 736.406 35.888C736.47 32.048 736.534 28.368 736.598 24.848C736.662 21.264 736.726 18.128 736.79 15.44C736.854 12.688 736.918 10.512 736.982 8.912C737.046 7.248 737.078 6.41599 737.078 6.41599ZM739.862 81.2C739.606 80.304 739.702 79.504 740.15 78.8C740.598 78.096 741.238 77.616 742.07 77.36C742.902 77.104 743.67 77.168 744.374 77.552C745.142 78 745.622 78.64 745.814 79.472C745.814 79.472 745.878 79.696 746.006 80.144L746.198 81.104C746.454 81.936 746.358 82.704 745.91 83.408C745.462 84.112 744.822 84.592 743.99 84.848C743.094 85.04 742.294 84.912 741.59 84.464C740.886 84.016 740.438 83.376 740.246 82.544L739.958 81.584C739.958 81.52 739.926 81.456 739.862 81.392C739.862 81.392 739.862 81.36 739.862 81.296V81.2Z" fill="white"/>
</svg>
