<svg fill="#000000" xmlns="http://www.w3.org/2000/svg"  viewBox="0 0 48 48" width="24px" height="24px"><path d="M 19.072266 2.9628906 C 18.689926 2.952775 18.288674 2.9658689 17.880859 3.0195312 C 17.065231 3.1268561 16.220391 3.3979697 15.4375 3.9707031 C 14.086398 4.9591188 13.363812 6.8652237 13.15625 9.4179688 C 12.298583 9.7175898 10.9508 10.24277 9.2695312 11.332031 C 6.8469191 12.901594 4.1592895 15.547453 4.0253906 19.449219 C 3.9624906 21.287916 4.4445162 24.230617 6.1035156 26.867188 C 5.7728756 27.801544 5.4804686 28.856293 5.4804688 30.107422 C 5.4804686 34.576172 7.7512417 37.305217 9.9667969 38.613281 C 11.251372 39.371694 12.380797 39.682152 13.232422 39.847656 C 13.510056 41.679755 14.178489 43.182554 15.359375 43.966797 C 16.832406 44.945057 18.500781 45.021944 19.966797 45.035156 C 21.363586 45.047696 22.712047 44.668846 23.761719 43.814453 C 23.845148 43.746545 23.921524 43.669897 24 43.595703 C 24.078476 43.669897 24.154852 43.746545 24.238281 43.814453 C 25.287953 44.668846 26.636414 45.0477 28.033203 45.035156 C 29.499219 45.021946 31.167594 44.945056 32.640625 43.966797 C 33.821511 43.182554 34.489944 41.679755 34.767578 39.847656 C 35.619203 39.682152 36.748628 39.371694 38.033203 38.613281 C 40.248758 37.305217 42.519531 34.576172 42.519531 30.107422 C 42.519531 28.856293 42.227263 27.801614 41.896484 26.867188 C 43.555484 24.230618 44.037509 21.287916 43.974609 19.449219 C 43.84071 15.547453 41.153081 12.901594 38.730469 11.332031 C 37.0492 10.24277 35.701417 9.7175897 34.84375 9.4179688 C 34.636188 6.8652236 33.913602 4.9591188 32.5625 3.9707031 C 31.779609 3.3979697 30.934769 3.1268561 30.119141 3.0195312 C 29.303512 2.9122066 28.516283 2.9677407 27.847656 3.0449219 C 26.531237 3.1974739 25.276825 3.7438302 24.277344 4.625 C 24.177801 4.7127597 24.094248 4.8222375 24 4.9179688 C 23.905752 4.8222375 23.822199 4.7127597 23.722656 4.625 C 22.723175 3.7438302 21.468763 3.1974739 20.152344 3.0449219 C 19.81803 3.0063313 19.454605 2.9730062 19.072266 2.9628906 z M 19.027344 5.9707031 C 19.276338 5.975542 19.537104 5.9943351 19.806641 6.0253906 L 19.808594 6.0253906 C 20.493696 6.1051956 21.238686 6.4345433 21.738281 6.875 C 22.2383 7.3158302 22.480469 7.7902701 22.480469 8.3027344 L 22.480469 14 L 19.498047 14 A 2.5 2.5 0 0 0 17.5 13 A 2.5 2.5 0 0 0 17.5 18 A 2.5 2.5 0 0 0 19.498047 17 L 22.480469 17 L 22.480469 31.472656 A 1.50015 1.50015 0 0 0 22.480469 31.552734 L 22.480469 32 L 19.498047 32 A 2.5 2.5 0 0 0 17.5 31 A 2.5 2.5 0 0 0 17.5 36 A 2.5 2.5 0 0 0 19.498047 35 L 22.480469 35 L 22.480469 40.082031 C 22.480469 40.797462 22.262719 41.167924 21.869141 41.488281 C 21.475563 41.808639 20.824351 42.042612 19.994141 42.035156 C 18.686109 42.023368 17.603 41.85624 17.019531 41.46875 C 16.436062 41.08126 15.980469 40.489073 15.980469 38.535156 A 1.50015 1.50015 0 0 0 14.566406 37.037109 C 14.566406 37.037109 13.026631 36.935233 11.492188 36.029297 C 9.9577421 35.123361 8.4804686 33.638672 8.4804688 30.107422 C 8.4804688 29.724358 8.5297164 29.358484 8.5976562 29 L 12.5 29 A 1.50015 1.50015 0 0 0 14 27.5 L 14 25 L 15.501953 25 A 2.5 2.5 0 0 0 17.5 26 A 2.5 2.5 0 0 0 17.5 21 A 2.5 2.5 0 0 0 15.501953 22 L 12.5 22 A 1.50015 1.50015 0 0 0 11 23.5 L 11 26 L 9.0566406 26 A 1.50015 1.50015 0 0 0 8.9414062 25.8125 C 7.4662215 23.810285 6.9800639 20.818685 7.0234375 19.550781 C 7.1115385 16.983547 8.9005024 15.145297 10.900391 13.849609 C 12.900278 12.553922 14.892578 11.976562 14.892578 11.976562 A 1.50015 1.50015 0 0 0 15.980469 10.535156 C 15.980469 7.7920732 16.629016 6.8149082 17.208984 6.390625 C 17.498969 6.1784834 17.878097 6.0559721 18.320312 6.0019531 C 18.54113 5.9749791 18.77835 5.9658642 19.027344 5.9707031 z M 28.972656 5.9707031 C 29.221966 5.9658813 29.45858 5.9749439 29.679688 6.0019531 C 30.121903 6.0559721 30.501031 6.1784834 30.791016 6.390625 C 31.370984 6.8149082 32.019531 7.7920731 32.019531 10.535156 A 1.50015 1.50015 0 0 0 33.107422 11.976562 C 33.107422 11.976562 33.924362 12.234932 35 12.722656 L 35 17 L 32.498047 17 A 2.5 2.5 0 0 0 30.5 16 A 2.5 2.5 0 0 0 30.5 21 A 2.5 2.5 0 0 0 32.498047 20 L 36.5 20 A 1.50015 1.50015 0 0 0 38 18.5 L 38 14.494141 C 39.606225 15.735251 40.902057 17.379703 40.976562 19.550781 C 41.019933 20.818685 40.533779 23.810285 39.058594 25.8125 A 1.50015 1.50015 0 0 0 38.876953 27.269531 C 39.240636 28.160054 39.519531 29.08413 39.519531 30.107422 C 39.519531 33.638672 38.042257 35.123361 36.507812 36.029297 C 34.973368 36.935233 33.433594 37.037109 33.433594 37.037109 A 1.50015 1.50015 0 0 0 32.019531 38.535156 C 32.019531 40.489073 31.563938 41.08126 30.980469 41.46875 C 30.397 41.85624 29.313844 42.023368 28.005859 42.035156 C 27.175649 42.042656 26.524437 41.808639 26.130859 41.488281 C 25.737281 41.167924 25.519531 40.797462 25.519531 40.082031 L 25.519531 33.527344 A 1.50015 1.50015 0 0 0 25.519531 33.447266 L 25.519531 33 L 33.5 33 A 1.50015 1.50015 0 0 0 35 31.5 L 35 28.496094 A 2.5 2.5 0 0 0 33.5 24 A 2.5 2.5 0 0 0 32 28.498047 L 32 30 L 25.519531 30 L 25.519531 15.527344 A 1.50015 1.50015 0 0 0 25.519531 15.447266 L 25.519531 8.3027344 C 25.519531 7.7902701 25.7617 7.3158302 26.261719 6.875 C 26.761314 6.4345433 27.506304 6.1051951 28.191406 6.0253906 C 28.461343 5.9942311 28.723347 5.9755249 28.972656 5.9707031 z"/></svg>