<?xml version="1.0" encoding="iso-8859-1"?>
<!-- Generator: Adobe Illustrator 19.0.0, SVG Export Plug-In . SVG Version: 6.00 Build 0)  -->
<svg version="1.1" id="Capa_1" xmlns="http://www.w3.org/2000/svg" xmlns:xlink="http://www.w3.org/1999/xlink" x="0px" y="0px"
	 viewBox="0 0 512.036 512.036" style="enable-background:new 0 0 512.036 512.036;" xml:space="preserve">
<g transform="translate(-1)">
	<g>
		<g>
			<path d="M393.54,320.011c14.138,0,25.6-11.461,25.6-25.6V72.545c0-14.138-11.462-25.6-25.6-25.6H60.74
				c-14.138,0-25.6,11.462-25.6,25.6v194.628L1.612,350.97c-1.054,2.63-0.734,5.612,0.855,7.959s4.239,3.751,7.072,3.749
				c1.128,0,2.244-0.223,3.285-0.657l100.821-42.01H393.54z M108.655,303.602L25.028,338.46l26.573-66.475
				c0.4-1.011,0.605-2.088,0.606-3.174V72.545c0-4.713,3.82-8.533,8.533-8.533h332.8c4.713,0,8.533,3.82,8.533,8.533v221.867
				c0,4.713-3.821,8.533-8.533,8.533h-281.6C110.812,302.945,109.696,303.168,108.655,303.602z"/>
			<path d="M512.401,453.328l-33.527-83.763v-194.62c0-14.138-11.462-25.6-25.6-25.6h-8.533c-4.713,0-8.533,3.82-8.533,8.533
				s3.82,8.533,8.533,8.533h8.533c4.713,0,8.533,3.821,8.533,8.533v196.267c0.217,1.055,0.419,2.113,0.606,3.174l26.598,66.475
				l-83.627-34.833c-0.521-0.155-1.055-0.261-1.596-0.316c-0.557-0.185-1.132-0.308-1.715-0.367h-281.6
				c-4.713,0-8.533-3.82-8.533-8.533v-25.6c0-4.713-3.82-8.533-8.533-8.533s-8.533,3.82-8.533,8.533v25.6
				c0,14.138,11.461,25.6,25.6,25.6h279.893l100.821,42.01c3.183,1.342,6.86,0.632,9.316-1.797S513.708,456.525,512.401,453.328z"/>
			<path d="M137.54,149.345h-34.133c-14.138,0-25.6,11.462-25.6,25.6v17.067c0,14.138,11.462,25.6,25.6,25.6h34.133
				c14.138,0,25.6-11.461,25.6-25.6v-17.067C163.14,160.806,151.678,149.345,137.54,149.345z M146.073,192.011
				c0,4.713-3.82,8.533-8.533,8.533h-34.133c-4.713,0-8.533-3.82-8.533-8.533v-17.067c0-4.713,3.82-8.533,8.533-8.533h34.133
				c4.713,0,8.533,3.821,8.533,8.533V192.011z"/>
			<path d="M248.473,149.345H214.34c-14.139,0-25.6,11.462-25.6,25.6v17.067c0,14.138,11.461,25.6,25.6,25.6h34.133
				c14.138,0,25.6-11.461,25.6-25.6v-17.067C274.073,160.806,262.612,149.345,248.473,149.345z M257.007,192.011
				c0,4.713-3.82,8.533-8.533,8.533H214.34c-4.713,0-8.533-3.82-8.533-8.533v-17.067c0-4.713,3.821-8.533,8.533-8.533h34.133
				c4.713,0,8.533,3.821,8.533,8.533V192.011z"/>
			<path d="M359.407,149.345h-34.133c-14.138,0-25.6,11.462-25.6,25.6v17.067c0,14.138,11.462,25.6,25.6,25.6h34.133
				c14.138,0,25.6-11.461,25.6-25.6v-17.067C385.007,160.806,373.545,149.345,359.407,149.345z M367.94,192.011
				c0,4.713-3.82,8.533-8.533,8.533h-34.133c-4.713,0-8.533-3.82-8.533-8.533v-17.067c0-4.713,3.82-8.533,8.533-8.533h34.133
				c4.713,0,8.533,3.821,8.533,8.533V192.011z"/>
		</g>
	</g>
</g>
<g>
</g>
<g>
</g>
<g>
</g>
<g>
</g>
<g>
</g>
<g>
</g>
<g>
</g>
<g>
</g>
<g>
</g>
<g>
</g>
<g>
</g>
<g>
</g>
<g>
</g>
<g>
</g>
<g>
</g>
</svg>
