<?xml version="1.0" encoding="iso-8859-1"?>
<!-- Generator: Adobe Illustrator 19.0.0, SVG Export Plug-In . SVG Version: 6.00 Build 0)  -->
<svg version="1.1" id="Capa_1" xmlns="http://www.w3.org/2000/svg" xmlns:xlink="http://www.w3.org/1999/xlink" x="0px" y="0px"
	 viewBox="0 0 511.999 511.999" style="enable-background:new 0 0 511.999 511.999;" xml:space="preserve">
<g>
	<g>
		<path d="M425.629,305.585c-0.208-0.07-0.418-0.135-0.63-0.195l-56.049-15.982l-39.785-37.952v-10.202
			c19.039-19.017,31.034-45.285,31.034-74.256v-62C360.2,47.258,313.436,0,255.4,0c-57.897,0-104.999,47.103-104.999,104.999v62
			c0,28.971,11.995,55.239,31.034,74.256v10.202l-39.531,37.899l-54.997,16.062c-0.181,0.053-0.36,0.109-0.538,0.168
			c-24.143,8.047-38.275,33.594-32.331,58.293l26.518,135.989c1.396,7.162,7.674,12.132,14.706,12.132
			c0.417,0,0.837-0.025,1.258-0.061c0.379,0.03,0.757,0.059,1.143,0.059h317.62c7.12,0,13.26-5.006,14.693-11.98l27.964-136.058
			C463.937,339.235,449.8,313.642,425.629,305.585z M340.968,304.104l-42.899,64.35l-23.386-23.386l42.432-63.948L340.968,304.104z
			 M255.399,30c24.494,0,46.28,11.805,59.976,30.021c-14.071,18.679-36.314,29.979-59.976,29.979h-73.491
			C188.878,55.808,219.18,30,255.399,30z M180.2,166.999v-47h75.2c27.739,0,54.083-11.091,73.482-30.047
			c0.994,4.863,1.518,9.895,1.518,15.047v62c0,41.355-33.645,75-75,75C214.044,241.999,180.2,208.354,180.2,166.999z
			 M193.685,281.12l42.433,63.948l-23.386,23.386l-42.899-64.35L193.685,281.12z M240.4,481.997H107.636
			c-0.112-0.572-24.248-124.413-24.392-124.978c-2.409-9.637,3.023-19.645,12.383-22.896l48.684-14.218l53.609,80.414
			c5.24,7.863,16.387,8.988,23.087,2.286l19.394-19.394V481.997z M219.422,265.647c11.228,4.108,23.346,6.351,35.978,6.351
			c12.632,0,24.75-2.243,35.978-6.351l-35.978,54.221L219.422,265.647z M428.612,357.637l-25.559,124.36H270.199v-98.786
			l19.594,19.394c6.693,6.696,17.842,5.583,23.087-2.286l53.611-80.417l49.92,14.235
			C424.607,337.004,431.147,345.425,428.612,357.637z"/>
	</g>
</g>
<g>
	<g>
		<path d="M375.399,421.998h-30c-8.284,0-15,6.716-15,15s6.716,15,15,15h30c8.284,0,15-6.716,15-15S383.684,421.998,375.399,421.998
			z"/>
	</g>
</g>
<g>
</g>
<g>
</g>
<g>
</g>
<g>
</g>
<g>
</g>
<g>
</g>
<g>
</g>
<g>
</g>
<g>
</g>
<g>
</g>
<g>
</g>
<g>
</g>
<g>
</g>
<g>
</g>
<g>
</g>
</svg>
