<svg xmlns="http://www.w3.org/2000/svg" width="961" height="275" viewBox="0 0 961 275">
  <defs>
    <style>
      .cls-1 {
        fill-rule: evenodd;
      }
    </style>
  </defs>
  <path id="Simon_Sorensen" data-name="Simon Sorensen" class="cls-1" d="M26.439,61.059Q0.317,125.9.318,158.818q0.618,5.332.618,6.646,6.645,20.094,23.648,20.093h1.236a73.894,73.894,0,0,0,11.515-1.236q48.3-15.765,60.124-15.765h3.632q17,0,17,24.265,0,20.247-16.383,40.109-31.067,32.148-60.742,32.148-13.447,0-15.765-8.5-1.7-18.238-10.9-18.238H13.07a1.247,1.247,0,0,0-1.236,1.237v1.854a46.541,46.541,0,0,0,1.236,9.119q10.123,25.5,35.24,25.5,13.369,0,30.912-7.96,51-28.825,51-68.006a53.851,53.851,0,0,0-1.778-12.751q-9.351-29.753-35.239-29.753H92.591a116.775,116.775,0,0,0-15.147,1.236q-50.233,15.765-57.11,15.765H14.847q-1.623,0-2.4-7.882,1-35.316,21.87-87.4Q64.3,11.292,92.591,11.291h4.869q7.882,0,9.737,29.135,0,19.32-7.264,40.649-4.561,14.452-15.224,21.87V104.8q4.945,7.265,9.119,7.264,2.782,0,7.264-3.632,18.239-24.651,18.238-61.979L118.093,33.7Q111.059,0.317,87.181.317H84.708q-27.821,0-58.269,60.742h0ZM146.377,100.7v5.487q3.09,14.529,11.515,14.528a4.276,4.276,0,0,0,1.855-.618l-1.237-10.9q0-7.341-10.355-10.356-1.779.927-1.778,1.855h0Zm2.4,29.134,1.855,21.252L148.773,182.7q0.077,29.136,13.369,29.134L164,210.6q-3.091-12.752-3.091-20.016,1.235-19.86,1.236-35.239V154.1a50.392,50.392,0,0,0-.618-9.66q-1.159-15.84-10.9-15.842Zm67.62,32.381h-1.159v-7.265q0-16.846-13.37-20.015h-1.236q-4.173,0-15.765,44.281h-0.619l-0.618-6.028a78.661,78.661,0,0,1,4.251-24.961V147.69q-4.716-8.5-9.738-8.5-4.4,0-6.028,22.411v8.5q0,24.885,15.766,29.753H188.5q6.027,0,15.147-37.635h0.618q0.077,4.868.618,4.868,0,10.976,12.751,15.765h0.618q6.261,0,17.62-32.148h0.619v0.618q-1.237,17.93-1.237,30.371v4.869Q237.643,215.7,250.4,215.7h0.618l1.855-1.236v-0.618q-5.488-8.039-5.487-21.252v-7.265q1.854-40.494,1.855-44.977V136.1q0-8.964-10.974-12.751h-1.237q-6.954,0-20.633,38.872h0Zm54.946-33.54Q257.5,150.936,257.506,170.1q0.771,9.584,2.473,13.37,9.117,19.475,24.884,19.474h4.868q14.529-8.654,14.529-34.621,0-22.721-12.751-32.844-0.233-2.472-20.17-6.8h0Zm6.259,16.538q0-5.486,7.883-5.487H286.1q6.029,6.185,6.028,20.711v0.618q-2.55,31.532-13.369,31.531-9.042,0-9.042-15.765,0-13.215,7.882-31.608h0Zm47.141,34h-0.618V178.6q0-14.76,5.487-36.4-3.556-8.5-9.119-8.5h-1.778q-4.251,4.869-6.723,38.872l1.236,11.515q0,11.592,13.988,16.383,2.55,0,6.028-6.028,19.706-47.68,26.739-57.728h1.236q-1.854,46.137-1.855,52.86v6.646q3.478,18.237,12.752,18.238h0.618l1.855-1.237a39.022,39.022,0,0,1-3.092-15.147v-4.868q0-10.665,1.855-45.518,0-.233-0.232-2.55-0.156-2.008-.386-5.41-3.71-17.541-15.224-17.542-11.361,0-32.767,57.032h0ZM444.6,61.059q-26.123,64.838-26.121,97.759,0.618,5.332.619,6.646,6.645,20.094,23.647,20.093h1.237a73.885,73.885,0,0,0,11.514-1.236q48.3-15.765,60.124-15.765h3.632q17,0,17,24.265,0,20.247-16.383,40.109-31.066,32.148-60.742,32.148-13.448,0-15.765-8.5-1.7-18.238-10.9-18.238h-1.236a1.247,1.247,0,0,0-1.237,1.237v1.854a46.533,46.533,0,0,0,1.237,9.119q10.122,25.5,35.239,25.5,13.369,0,30.912-7.96,51-28.825,51-68.006a53.851,53.851,0,0,0-1.778-12.751q-9.351-29.753-35.239-29.753h-0.618a116.765,116.765,0,0,0-15.147,1.236q-50.234,15.765-57.11,15.765h-5.487q-1.623,0-2.4-7.882,1-35.316,21.871-87.4,29.982-68.005,58.269-68.006h4.868q7.883,0,9.737,29.135,0,19.32-7.264,40.649-4.56,14.452-15.224,21.87V104.8q4.944,7.265,9.119,7.264,2.782,0,7.264-3.632Q537.49,83.781,537.49,46.454L536.254,33.7Q529.221,0.317,505.342.317h-2.473q-27.821,0-58.269,60.742h0Zm124.807,67.62q-13.835,22.257-13.833,41.422,0.771,9.584,2.473,13.37,9.117,19.475,24.884,19.474H587.8q14.528-8.654,14.528-34.621,0-22.721-12.751-32.844-0.232-2.472-20.17-6.8h0Zm6.26,16.538q0-5.486,7.882-5.487h0.618q6.029,6.185,6.028,20.711v0.618q-2.55,31.532-13.369,31.531-9.042,0-9.042-15.765,0-13.215,7.883-31.608h0Zm35.162-21.87a149.562,149.562,0,0,1,1.855,22.488v9.119q0,19.243-1.237,37.017a29.918,29.918,0,0,1,.618,4.869q4.327,9.738,11.515,9.737l1.855-1.236q11.282-69.86,25.5-69.861h2.4q3.785,3.092,7.264,3.091h0.618a1.093,1.093,0,0,0,1.237-1.236v-0.619q-3.324-10.276-18.856-12.133h-1.16q-10.047,0-17,21.252h-0.618a27.917,27.917,0,0,1-.619-7.264q0-13.911-10.9-16.383a4.359,4.359,0,0,0-2.473,1.159h0Zm74.343,1.855q-18.935,6.647-21.252,42.5a73.775,73.775,0,0,0,1.237,11.514q8.5,25.5,26.12,25.5a27.927,27.927,0,0,0,6.646-1.16q20.092-11.05,20.093-26.12v-1.855q-3.555-9.736-9.737-9.737-2.475.927-2.473,1.855v5.486q-8.193,20.634-23.03,20.634h-0.618q-6.105-4.713-6.105-18.856a85.156,85.156,0,0,1,1.237-13.37,26.984,26.984,0,0,0,11.514,3.092h2.473q17.157,0,19.4-19.475a15.227,15.227,0,0,0-1.159-6.646q-7.342-13.986-17-13.988h-2.473a20.026,20.026,0,0,0-4.869.619h0Zm12.751,9.737,0.618,1.159v3.632q-2.706,13.989-13.369,13.988h-5.41q7.265-18.778,18.161-18.779h0ZM735.4,179.22h-0.618V178.6q0-14.76,5.487-36.4-3.557-8.5-9.119-8.5h-1.778q-4.251,4.869-6.723,38.872l1.236,11.515q0,11.592,13.988,16.383,2.55,0,6.028-6.028,19.706-47.68,26.739-57.728h1.236q-1.854,46.137-1.855,52.86v6.646q3.479,18.237,12.751,18.238H783.4l1.854-1.237a39.039,39.039,0,0,1-3.091-15.147v-4.868q0-10.665,1.855-45.518,0-.233-0.232-2.55-0.156-2.008-.386-5.41-3.709-17.541-15.224-17.542-11.361,0-32.767,57.032h0Zm72.72-62.519q-18.238,14.916-18.238,32.766v3.014q0,9.506,13.988,18.238,12.751,3.4,12.751,9.119,0,11.129-12.21,17v-0.618q-4.637-8.5-9.66-8.5l-2.473,1.236v1.237q6.567,17.619,18.238,17.62h1.855q15.765-5.872,15.765-20.093v-3.014q0-12.055-19.475-20.634-7.264-1.931-7.264-7.341,0-14.142,15.765-29.135h0.618l0.618,3.091a155.312,155.312,0,0,1-1.236,19.4q4.173,7.882,9.737,7.882h0.618q3.015-.927,3.014-17a89.907,89.907,0,0,0-1.159-10.279q-5.488-15.223-15.842-15.224h-1.159Zm50.619,8.5q-18.936,6.647-21.252,42.5a73.75,73.75,0,0,0,1.236,11.514q8.5,25.5,26.121,25.5a27.935,27.935,0,0,0,6.646-1.16q20.091-11.05,20.092-26.12v-1.855q-3.555-9.736-9.737-9.737-2.473.927-2.473,1.855v5.486q-8.192,20.634-23.029,20.634h-0.618q-6.107-4.713-6.106-18.856a85.156,85.156,0,0,1,1.237-13.37,26.988,26.988,0,0,0,11.515,3.092h2.473q17.156,0,19.4-19.475a15.241,15.241,0,0,0-1.159-6.646q-7.344-13.986-17-13.988h-2.473a20.024,20.024,0,0,0-4.868.619h0Zm12.751,9.737,0.618,1.159v3.632q-2.706,13.989-13.369,13.988h-5.41q7.263-18.778,18.161-18.779h0Zm37.48,44.281h-0.618V178.6q0-14.76,5.487-36.4-3.555-8.5-9.119-8.5h-1.777q-4.251,4.869-6.724,38.872l1.237,11.515q0,11.592,13.987,16.383,2.55,0,6.028-6.028,19.707-47.68,26.739-57.728h1.236q-1.854,46.137-1.854,52.86v6.646q3.477,18.237,12.751,18.238h0.618l1.855-1.237a39.039,39.039,0,0,1-3.091-15.147v-4.868q0-10.665,1.854-45.518,0-.233-0.231-2.55-0.156-2.008-.387-5.41-3.71-17.541-15.224-17.542-11.36,0-32.767,57.032h0Z"/>
</svg>
