<svg width="360" height="360" viewBox="0 0 360 360" fill="none" xmlns="http://www.w3.org/2000/svg">
<circle cx="180" cy="180" r="175" fill="url(#paint0_linear)" stroke="white" stroke-width="10"/>
<path fill-rule="evenodd" clip-rule="evenodd" d="M98.5205 128.404L98.0503 128.809L98.0078 179.206C97.9809 211.117 98.0242 229.757 98.1254 230.024C98.5295 231.087 98.0119 231.045 110.818 231.045H122.435L122.946 230.556L123.456 230.067V190.525C123.456 147.922 123.409 150.175 124.305 149.699C124.627 149.529 129.854 149.496 150.695 149.534L176.684 149.581L178.096 149.976C183.553 151.503 187.204 154.804 188.997 159.834C190.157 163.087 190.095 160.986 190.096 197.13C190.096 229.144 190.102 229.722 190.422 230.245C190.966 231.138 191.056 231.144 203.334 231.092L214.579 231.045L215.123 230.5L215.668 229.956V192.766C215.668 153.331 215.684 154.198 214.892 150.511C212.573 139.709 202.983 130.67 191.512 128.471L189.512 128.088L144.252 128.044L98.9907 128L98.5205 128.404ZM236.191 128.472L235.743 128.939V179.503V230.067L236.254 230.556L236.765 231.045H248.381C261.188 231.045 260.67 231.087 261.074 230.024C261.175 229.757 261.219 211.117 261.192 179.206L261.149 128.809L260.682 128.407L260.214 128.004H248.426H236.639L236.191 128.472ZM144.345 167.973C143.407 168.544 143.448 167.099 143.448 199.458C143.449 233.317 143.338 230.485 144.682 230.924C145.676 231.249 168.873 231.143 169.371 230.812C170.236 230.237 170.184 232.117 170.231 199.751C170.278 167.338 170.31 168.544 169.387 167.981C168.566 167.48 145.165 167.473 144.345 167.973Z" fill="white"/>
<defs>
<linearGradient id="paint0_linear" x1="180" y1="10" x2="180" y2="350" gradientUnits="userSpaceOnUse">
<stop stop-color="#0029FF"/>
<stop offset="1" stop-color="#7000FF"/>
</linearGradient>
</defs>
</svg>
